#N canvas 344 107 433 256 10;
#X declare -lib iemmatrix;
#X obj 103 36 inlet;
#X text 255 19 row idcs;
#X text 356 19 col idcs;
#X text 258 4 from mtx_find_rowcol:;
#X obj 258 37 inlet;
#X obj 361 37 inlet;
#X obj 144 168 mtx_rowcol2index;
#X obj 144 146 mtx;
#X obj 103 57 t a a;
#X obj 144 105 mtx_size;
#X obj 144 126 t b f, f 16;
#X obj 63 220 outlet;
#X obj 63 35 inlet;
#X obj 63 200 mtx_fill, f 14;
#X obj 193 220 declare -lib iemmatrix;
#X text 105 7 orig matrix, f 6;
#X text 57 5 fill matrix, f 6;
#X connect 0 0 8 0;
#X connect 4 0 7 1;
#X connect 5 0 6 1;
#X connect 6 0 13 2;
#X connect 7 0 6 0;
#X connect 8 0 13 1;
#X connect 8 1 9 0;
#X connect 9 1 10 0;
#X connect 10 0 7 0;
#X connect 10 1 6 2;
#X connect 12 0 13 0;
#X connect 13 0 11 0;
