#N canvas 541 188 450 300 10;
#X declare -lib iemmatrix;
#X obj 72 78 hsl 128 15 0 360 0 0 empty empty empty -2 -8 0 10 #fcfcfc #000000 #000000 0 1;
#X floatatom 69 98 5 0 0 0 - - - 0;
#X obj 69 115 *;
#X obj 225 105 atan;
#X msg 225 85 1;
#X obj 225 65 loadbang;
#X obj 225 124 / 45;
#X obj 69 136 mtx_rot;
#X obj 69 173 mtx_print R;
#X text 58 23 2 dimensional cartesian rotation matrix;
#X msg 33 51 0;
#X msg 64 51 90;
#X msg 94 51 180;
#X msg 126 51 270;
#N canvas 477 377 494 171 META 0;
#X text 12 105 AUTHOR IOhannes m zmoelnig;
#X text 12 85 OUTLET_0 matrix;
#X text 12 125 HELP_PATCH_AUTHORS IOhannes m zmölnig;
#X text 12 25 LICENSE GPL-2+;
#X text 12 65 INLET_0 matrix;
#X text 12 5 KEYWORDS control matrix;
#X text 12 44 DESCRIPTION 2d cartesian rotation matrix, f 81;
#X restore 174 278 pd META;
#X obj 29 278 declare -lib iemmatrix;
#X connect 0 0 1 0;
#X connect 1 0 2 0;
#X connect 2 0 7 0;
#X connect 3 0 6 0;
#X connect 4 0 3 0;
#X connect 5 0 4 0;
#X connect 6 0 2 1;
#X connect 7 0 8 0;
#X connect 10 0 1 0;
#X connect 11 0 1 0;
#X connect 12 0 1 0;
#X connect 13 0 1 0;
