#N canvas 184 200 594 332 10;
#X declare -lib iemmatrix;
#X obj 417 118 t a a;
#X obj 335 118 t a a;
#X obj 144 257 mtx_./, f 9;
#X obj 231 256 mtx_./, f 8;
#X obj 144 19 inlet realA;
#X obj 226 19 inlet imagA;
#X obj 335 19 inlet realB;
#X obj 417 19 inlet imagB;
#X obj 362 181 mtx_.cabs2;
#X obj 417 141 mtx_* -1;
#X obj 144 232 mtx_.cmul, f 15;
#X obj 144 294 outlet real;
#X obj 231 294 outlet imag;
#X text 344 234 element wise complex matrix division;
#X obj 345 256 declare -lib iemmatrix;
#X obj 249 232 t a a;
#X connect 0 0 9 0;
#X connect 0 1 8 1;
#X connect 1 0 10 2;
#X connect 1 1 8 0;
#X connect 2 0 11 0;
#X connect 3 0 12 0;
#X connect 4 0 10 0;
#X connect 5 0 10 1;
#X connect 6 0 1 0;
#X connect 7 0 0 0;
#X connect 8 0 15 0;
#X connect 9 0 10 3;
#X connect 10 0 2 0;
#X connect 10 1 3 0;
#X connect 15 0 2 1;
#X connect 15 1 3 1;
