#N canvas 60 0 500 421 10;
#X declare -lib iemmatrix;
#X obj 33 154 inlet;
#X obj 108 154 inlet;
#X obj 33 358 outlet;
#X text 345 160 part of iemmatrix.;
#X text 348 215 see also:;
#X obj 431 213 mtx;
#X text 105 56 mtx_tab behaves just like a "mtx" object that stores its internal matrix in a table. So this matrix can be seen as a local/global variable of the workspace.;
#X text 349 282 Franz Zotter 2006;
#X text 105 6 [mtx_tab];
#N canvas 0 0 657 677 mtx_tab 0;
#X obj 33 34 inlet;
#X obj 287 86 inlet;
#X obj 287 601 list prepend 0;
#X obj 287 506 t a a;
#X obj 412 561 *;
#X msg 412 600 resize \$1;
#X obj 33 438 outlet;
#X obj 156 343 mtx;
#X obj 156 75 t a b;
#X obj 191 176 list prepend matrix;
#X obj 191 196 list trim;
#X obj 156 306 spigot;
#X msg 218 305 0;
#X msg 218 285 1;
#X obj 412 581 + 2;
#X text 329 625 send to table;
#X text 298 159 get from table;
#X obj 156 363 t b a;
#X obj 191 411 spigot;
#X msg 234 364 0;
#X msg 263 364 1;
#X obj 191 384 t a a;
#N canvas 0 0 450 300 bang 0;
#X obj 103 28 inlet;
#X obj 103 59 route bang;
#X obj 103 119 outlet;
#X obj 103 92 b;
#X connect 0 0 1 0;
#X connect 1 0 3 0;
#X connect 1 1 2 0;
#X connect 3 0 2 0;
#X restore 197 255 pd bang;
#X obj 156 217 t b b a b b;
#X text 301 485 <r> <c> ...;
#X obj 287 467 route matrix;
#X msg 412 542 \$1 \$2;
#X obj 33 94 list prepend matrix;
#X obj 33 114 list trim;
#X obj 33 75 t a a;
#X obj 33 56 route matrix set;
#X text 170 238 if no output: send to table anyway;
#X obj 287 624 s;
#X obj 201 105 symbol \$1;
#X obj 447 464 loadbang;
#X obj 447 484 symbol \$1;
#X obj 191 156 array get \$1;
#X obj 201 128 t s s;
#X connect 0 0 30 0;
#X connect 1 0 25 0;
#X connect 2 0 32 0;
#X connect 3 0 2 0;
#X connect 3 1 26 0;
#X connect 4 0 14 0;
#X connect 5 0 32 0;
#X connect 7 0 17 0;
#X connect 8 0 23 0;
#X connect 8 1 36 0;
#X connect 9 0 10 0;
#X connect 10 0 7 1;
#X connect 11 0 7 0;
#X connect 12 0 11 1;
#X connect 13 0 11 1;
#X connect 14 0 5 0;
#X connect 17 0 12 0;
#X connect 17 1 21 0;
#X connect 18 0 6 0;
#X connect 19 0 18 1;
#X connect 20 0 18 1;
#X connect 21 0 18 0;
#X connect 21 1 25 0;
#X connect 22 0 7 0;
#X connect 23 0 11 0;
#X connect 23 1 19 0;
#X connect 23 2 22 0;
#X connect 23 3 13 0;
#X connect 23 4 20 0;
#X connect 25 0 3 0;
#X connect 26 0 4 0;
#X connect 27 0 28 0;
#X connect 28 0 6 0;
#X connect 29 0 27 0;
#X connect 29 1 3 0;
#X connect 30 0 29 0;
#X connect 30 1 33 0;
#X connect 30 2 8 0;
#X connect 33 0 37 0;
#X connect 34 0 35 0;
#X connect 35 0 32 1;
#X connect 36 0 9 0;
#X connect 37 0 32 1;
#X connect 37 1 36 2;
#X restore 33 327 pd mtx_tab;
#X text 105 38 arguments: \$1 ... table name;
#X obj 235 346 declare -lib iemmatrix;
#X connect 0 0 9 0;
#X connect 1 0 9 1;
#X connect 9 0 2 0;
