#N canvas 191 265 467 512 10;
#X declare -lib iemmatrix;
#X obj 80 40 inlet;
#X obj 80 81 t a a;
#X obj 107 102 mtx_size;
#X obj 210 40 inlet;
#X text 256 40 row_idcs;
#X obj 210 60 mtx_:;
#X obj 210 102 mtx_- 1;
#X obj 194 211 mtx;
#X obj 194 231 mtx_* 1;
#X obj 194 251 mtx_repmat;
#X msg 281 229 1 \$1;
#X obj 210 81 mtx_transpose;
#X obj 194 273 t a a;
#X obj 221 294 mtx_size;
#X obj 221 355 mtx_:;
#X obj 221 375 mtx_repmat;
#X obj 221 335 pack 1 f;
#X obj 221 315 t b f;
#X msg 278 315 \$1 1;
#X obj 194 397 mtx_+;
#X obj 19 439 outlet;
#X obj 19 39 inlet;
#X obj 19 415 mtx_fill;
#X obj 194 181 spigot 0;
#X obj 249 181 > 0;
#X obj 194 158 t a a;
#X obj 205 436 declare -lib iemmatrix;
#X text 308 160 fills in elements into given rows of a matrix, f 18;
#X text 18 10 fill matrix, f 6;
#X text 83 11 orig matrix, f 6;
#X obj 152 123 t b f f f, f 22;
#X connect 0 0 1 0;
#X connect 1 0 22 1;
#X connect 1 1 2 0;
#X connect 2 1 30 0;
#X connect 3 0 5 0;
#X connect 5 0 11 0;
#X connect 6 0 25 0;
#X connect 7 0 8 0;
#X connect 8 0 9 0;
#X connect 9 0 12 0;
#X connect 10 0 9 1;
#X connect 11 0 6 0;
#X connect 12 0 19 0;
#X connect 12 1 13 0;
#X connect 13 0 17 0;
#X connect 13 1 16 1;
#X connect 14 0 15 0;
#X connect 15 0 19 1;
#X connect 16 0 14 0;
#X connect 17 0 16 0;
#X connect 17 1 18 0;
#X connect 18 0 15 1;
#X connect 19 0 22 2;
#X connect 21 0 22 0;
#X connect 22 0 20 0;
#X connect 23 0 7 0;
#X connect 24 0 23 1;
#X connect 25 0 23 0;
#X connect 25 1 7 1;
#X connect 30 0 7 0;
#X connect 30 1 8 1;
#X connect 30 2 24 0;
#X connect 30 3 10 0;
