#N canvas 151 48 580 681 10;
#X declare -lib iemmatrix;
#X obj 175 32 inlet;
#X obj 260 121 *;
#X obj 260 189 random;
#X obj 311 189 random;
#X obj 260 143 until;
#X obj 260 163 t b b;
#X obj 311 211 + 1;
#X obj 260 211 + 1;
#X obj 175 467 mtx;
#X obj 260 234 pack;
#X obj 260 256 mtx 1 2;
#X obj 260 279 t a a;
#X obj 260 306 mtx_reverse;
#X obj 260 329 list split 3;
#X obj 323 361 list split 3;
#X obj 363 384 unpack;
#X obj 201 363 unpack, f 9;
#X obj 402 407 t f b;
#X msg 447 407 2;
#X obj 321 408 t f b;
#X msg 366 408 1;
#X obj 194 572 list trim;
#X msg 220 413 0;
#X obj 252 389 t b f;
#X obj 194 549 list prepend;
#X obj 175 643 outlet;
#X msg 443 129 \$1;
#X obj 443 281 mtx_eye;
#X msg 271 523 row \$1;
#X msg 321 430 row \$1;
#N canvas 735 459 450 300 demux 0;
#X obj 62 53 inlet data;
#X obj 143 53 inlet #out;
#X obj 62 194 outlet #0;
#X obj 132 194 outlet #1;
#X obj 202 194 outlet #2;
#X obj 62 76 list prepend 0;
#X obj 62 99 route 0 1 2;
#X connect 0 0 5 0;
#X connect 1 0 5 1;
#X connect 5 0 6 0;
#X connect 6 0 2 0;
#X connect 6 1 3 0;
#X connect 6 2 4 0;
#X restore 175 490 pd demux;
#X obj 194 524 list;
#X obj 231 524 list;
#X obj 365 646 declare -lib iemmatrix;
#X obj 260 96 t f f f f;
#X obj 175 53 t b f f, f 29;
#X obj 201 389 t b b f;
#X connect 0 0 35 0;
#X connect 1 0 4 0;
#X connect 2 0 7 0;
#X connect 3 0 6 0;
#X connect 4 0 5 0;
#X connect 5 0 2 0;
#X connect 5 1 3 0;
#X connect 6 0 9 1;
#X connect 7 0 9 0;
#X connect 8 0 30 0;
#X connect 9 0 10 0;
#X connect 10 0 11 0;
#X connect 11 0 12 0;
#X connect 11 1 14 0;
#X connect 12 0 13 0;
#X connect 13 1 16 0;
#X connect 14 1 15 0;
#X connect 15 0 19 0;
#X connect 15 1 17 0;
#X connect 16 0 36 0;
#X connect 16 1 23 0;
#X connect 17 0 29 0;
#X connect 17 1 18 0;
#X connect 18 0 30 1;
#X connect 19 0 29 0;
#X connect 19 1 20 0;
#X connect 20 0 30 1;
#X connect 21 0 8 0;
#X connect 22 0 30 1;
#X connect 23 0 32 0;
#X connect 23 1 28 0;
#X connect 24 0 21 0;
#X connect 26 0 27 0;
#X connect 27 0 8 1;
#X connect 28 0 24 1;
#X connect 29 0 8 0;
#X connect 30 0 25 0;
#X connect 30 1 31 1;
#X connect 30 2 32 1;
#X connect 31 0 24 0;
#X connect 32 0 24 0;
#X connect 34 0 1 0;
#X connect 34 1 1 1;
#X connect 34 2 2 1;
#X connect 34 3 3 1;
#X connect 35 0 8 0;
#X connect 35 1 34 0;
#X connect 35 2 26 0;
#X connect 36 0 31 0;
#X connect 36 1 22 0;
#X connect 36 2 28 0;
