#N canvas 774 102 578 400 10;
#X declare -lib iemmatrix;
#X obj 100 212 mtx_roots;
#X text 29 22 [mtx_roots] uses [mtx_eig] to solve polynomials (see MATLAB-help for 'roots');
#X text 73 60 [mtx_eig] requires iemmatrix to be compiled with gsl;
#X text 339 350 Franz Zotter \, 2010;
#X text 60 127 (x-3i)(x+3i)(x-1)(x+2)(x-3)=;
#X text 77 144 x^5-2x^4+4x^3-12x^2-45x+54;
#X msg 100 185 1 -2 4 -12 -45 54;
#X obj 82 268 print re;
#X obj 160 267 print im;
#N canvas 182 448 494 171 META 0;
#X text 12 85 OUTLET_0 matrix;
#X text 12 125 HELP_PATCH_AUTHORS IOhannes m zmölnig;
#X text 12 25 LICENSE GPL-2+;
#X text 12 65 INLET_0 matrix;
#X text 12 5 KEYWORDS control matrix;
#X text 12 105 AUTHOR Franz Zotter;
#X text 12 44 DESCRIPTION solve polyomials with eigenvalues, f 81;
#X restore 444 368 pd META;
#X obj 299 368 declare -lib iemmatrix;
#X connect 0 0 7 0;
#X connect 0 1 8 0;
#X connect 6 0 0 0;
