#N canvas 116 0 450 388 10;
#X declare -lib iemmatrix;
#X obj 70 20 inlet;
#X obj 70 41 t a a;
#X obj 97 61 mtx_size;
#X obj 196 20 inlet;
#X text 242 20 row_idcs;
#X text 113 21 matrix;
#X obj 196 41 mtx_:;
#X obj 196 83 mtx_- 1;
#X obj 145 112 mtx, f 9;
#X obj 145 133 mtx_* 1;
#X obj 145 154 mtx_repmat;
#X msg 202 133 1 \$1;
#X obj 196 62 mtx_transpose;
#X obj 145 175 t a a, f 7;
#X obj 184 197 mtx_size;
#X obj 184 258 mtx_:;
#X obj 184 278 mtx_repmat;
#X obj 184 238 pack 1 f;
#X obj 184 218 t b f, f 10;
#X msg 241 251 \$1 1;
#X obj 145 304 mtx_+, f 7;
#X obj 70 326 mtx_index, f 13;
#X obj 70 350 outlet;
#X text 287 100 slices out given;
#X text 296 122 rows of a matrix;
#X text 304 144 writing them into;
#X text 315 167 a new matrix;
#X obj 235 336 declare -lib iemmatrix;
#X obj 145 83 t b f f;
#X connect 0 0 1 0;
#X connect 1 0 21 0;
#X connect 1 1 2 0;
#X connect 2 1 28 0;
#X connect 3 0 6 0;
#X connect 6 0 12 0;
#X connect 7 0 8 1;
#X connect 8 0 9 0;
#X connect 9 0 10 0;
#X connect 10 0 13 0;
#X connect 11 0 10 1;
#X connect 12 0 7 0;
#X connect 13 0 20 0;
#X connect 13 1 14 0;
#X connect 14 0 18 0;
#X connect 14 1 17 1;
#X connect 15 0 16 0;
#X connect 16 0 20 1;
#X connect 17 0 15 0;
#X connect 18 0 17 0;
#X connect 18 1 19 0;
#X connect 19 0 16 1;
#X connect 20 0 21 1;
#X connect 21 0 22 0;
#X connect 28 0 8 0;
#X connect 28 1 9 1;
#X connect 28 2 11 0;
