#N canvas 773 206 450 300 10;
#X declare -lib iemmatrix;
#X obj 54 114 mtx_randperm;
#X msg 54 79 4;
#X text 82 36 random permutation matrix;
#X text 230 221 Franz Zotter \, 2012;
#X text 232 241 iemmatrix;
#X obj 54 182 mtx_print;
#N canvas 477 377 494 171 META 0;
#X text 12 86 OUTLET_0 matrix;
#X text 12 125 HELP_PATCH_AUTHORS IOhannes m zmölnig;
#X text 12 25 LICENSE GPL-2+;
#X text 12 65 INLET_0 matrix;
#X text 12 5 KEYWORDS control matrix;
#X text 12 105 AUTHOR Franz Zotter;
#X text 12 44 DESCRIPTION random permutation matrix, f 81;
#X restore 324 278 pd META;
#X obj 179 278 declare -lib iemmatrix;
#X connect 0 0 5 0;
#X connect 1 0 0 0;
