#N canvas 0 0 450 300 10;
#X declare -lib iemmatrix;
#X obj 69 114 mtx 3 1;
#X text 126 70 2 ey;
#X text 144 94 3 ez;
#X text 264 202 Franz Zotter \, 2009;
#X text 19 11 converting cartersian to spherical coordinates;
#X msg 26 49 1 0 0;
#X text 81 47 1 ex;
#X obj 69 147 mtx_cart2sph;
#X msg 69 71 0 2 0;
#X msg 97 91 0 0 3;
#X text 219 62 input matrices have the shape 3xL;
#X text 221 76 and may contain L points;
#X text 219 93 [ x \; y \; z ];
#X obj 69 191 mtx_print rphitheta;
#N canvas 460 154 494 171 META 0;
#X text 12 105 AUTHOR IOhannes m zmoelnig;
#X text 12 85 OUTLET_0 matrix;
#X text 12 125 HELP_PATCH_AUTHORS IOhannes m zmölnig;
#X text 12 25 LICENSE GPL-2+;
#X text 12 65 INLET_0 matrix;
#X text 12 5 KEYWORDS control matrix;
#X text 12 44 DESCRIPTION convert a matrix of cartesian vectors into spherical coordinates, f 77;
#X restore 354 257 pd META;
#X obj 209 258 declare -lib iemmatrix;
#X connect 0 0 7 0;
#X connect 5 0 0 0;
#X connect 7 0 13 0;
#X connect 8 0 0 0;
#X connect 9 0 0 0;
