#N canvas 439 163 841 379 10;
#X declare -lib iemmatrix;
#X text 482 28 part of iemmatrix;
#X text 268 138 inlet: [startval stopval n(;
#X text 268 157 outlet: matrix/vector;
#X text 465 324 see also:;
#X obj 33 187 mtx_print;
#X text 43 34 [mtx_logspace];
#X text 166 69 creates a logarithmically spaced vector from a startvalue to a stopvalue with n entries;
#X obj 33 165 mtx_logspace;
#X msg 33 142 1 10000 9;
#X obj 535 325 mtx_linspace;
#N canvas 477 377 585 171 META 0;
#X text 12 105 AUTHOR IOhannes m zmoelnig;
#X text 12 85 OUTLET_0 matrix;
#X text 12 125 HELP_PATCH_AUTHORS IOhannes m zmölnig;
#X text 12 25 LICENSE GPL-2+;
#X text 12 65 INLET_0 matrix;
#X text 12 5 KEYWORDS control matrix;
#X text 12 44 DESCRIPTION create a logarithmically spaced matrix vector using start stop and numsteps, f 89;
#X restore 584 358 pd META;
#X obj 439 358 declare -lib iemmatrix;
#X connect 7 0 4 0;
#X connect 8 0 7 0;
