#N canvas 88 457 655 379 10;
#X declare -lib iemmatrix;
#X text 482 28 part of iemmatrix;
#X msg 33 172 matrix 1 2 1 2;
#X msg 49 193 matrix 1 2 0 1;
#X obj 33 124 bng 15 250 50 0 empty empty empty 0 -6 0 8 #fcfcfc #000000 #000000;
#X obj 33 148 t b b b b;
#X obj 33 216 t a a;
#X text 441 116 inletA: real part of matrix;
#X text 440 135 inletB: imaginary part of matrix;
#X text 439 157 outletA: real valued output;
#X obj 165 216 mtx_print realA;
#X obj 165 195 mtx_print imagA;
#X obj 33 280 mtx_print cabs2;
#X obj 33 242 mtx_.cabs2;
#X text 44 34 [mtx_.cabs2];
#X text 166 69 complex valued element wise matrix absolute value;
#N canvas 460 154 494 171 META 0;
#X text 12 105 AUTHOR IOhannes m zmoelnig;
#X text 12 85 OUTLET_0 matrix;
#X text 12 125 HELP_PATCH_AUTHORS IOhannes m zmölnig;
#X text 12 25 LICENSE GPL-2+;
#X text 12 65 INLET_0 matrix;
#X text 12 5 KEYWORDS control matrix;
#X text 12 44 DESCRIPTION element-wise absolute value of complex-valued matrix, f 67;
#X restore 584 327 pd META;
#X obj 439 328 declare -lib iemmatrix;
#X connect 1 0 5 0;
#X connect 2 0 12 1;
#X connect 2 0 10 0;
#X connect 3 0 4 0;
#X connect 4 0 1 0;
#X connect 4 1 2 0;
#X connect 5 0 12 0;
#X connect 5 1 9 0;
#X connect 12 0 11 0;
