#N canvas 0 0 765 625 10;
#X declare -lib iemmatrix;
#X obj 142 6 inlet mtx_im/y;
#X obj 432 7 inlet mtx_re/x;
#X obj 142 598 outlet;
#X text 598 442 Franz Zotter 2007;
#X obj 226 447 atan2, f 13;
#X obj 301 419 mtx;
#X obj 142 111 spigot;
#X obj 202 153 print mtx_atan2;
#X msg 202 132 matrix dimensions do not match!;
#X obj 226 417 mtx;
#X msg 226 370 element \$1 \$2;
#X obj 226 394 t a a;
#X obj 142 574 mtx;
#X msg 463 522 size \$1 \$2;
#X obj 169 345 t l l;
#X obj 169 490 pack f f f;
#X msg 169 511 element \$1 \$2 \$3;
#X obj 142 184 t b b;
#X obj 595 476 declare -lib iemmatrix;
#X obj 432 30 t a a;
#X obj 142 26 t b a a;
#N canvas 735 461 450 300 sizecheck 0;
#X obj 32 14 inlet mtxA;
#X obj 188 14 inlet mtxB;
#X obj 32 37 mtx_size;
#X obj 188 37 mtx_size;
#X obj 32 100 ==;
#X obj 77 100 ==;
#X obj 32 123 &&;
#X obj 32 146 outlet samesize;
#X obj 196 123 pack;
#X obj 32 69 t f f;
#X obj 77 69 t f f;
#X obj 196 146 outlet sizeA;
#X connect 0 0 2 0;
#X connect 1 0 3 0;
#X connect 2 0 9 0;
#X connect 2 1 10 0;
#X connect 3 0 4 1;
#X connect 3 1 5 1;
#X connect 4 0 6 0;
#X connect 5 0 6 1;
#X connect 6 0 7 0;
#X connect 8 0 11 0;
#X connect 9 0 4 0;
#X connect 9 1 8 0;
#X connect 10 0 5 0;
#X connect 10 1 8 1;
#X restore 175 57 pd sizecheck;
#X f 27;
#X obj 334 175 t l l, f 22;
#X obj 175 90 t f f;
#X obj 202 112 select 0;
#N canvas 0 0 450 526 iterate2D 0;
#X msg 101 171 0;
#X obj 62 171 until;
#X obj 62 193 f, f 7;
#X obj 62 215 + 1;
#X obj 62 260 t b f, f 12;
#X obj 62 421 pack, f 12;
#X obj 62 303 f, f 15;
#X obj 62 281 t b b, f 7;
#X msg 101 326 0;
#X obj 62 325 until;
#X obj 62 347 f, f 7;
#X obj 62 370 + 1;
#X obj 62 79 swap, f 15;
#X obj 62 139 t f b, f 7;
#X obj 62 237 t f f, f 7;
#X obj 62 393 t a a, f 7;
#X obj 62 444 outlet m n;
#X obj 62 56 inlet M N;
#X connect 0 0 2 1;
#X connect 1 0 2 0;
#X connect 2 0 3 0;
#X connect 3 0 14 0;
#X connect 4 0 7 0;
#X connect 4 1 5 1;
#X connect 5 0 16 0;
#X connect 6 0 9 0;
#X connect 7 0 6 0;
#X connect 7 1 8 0;
#X connect 8 0 10 1;
#X connect 9 0 10 0;
#X connect 10 0 11 0;
#X connect 11 0 15 0;
#X connect 12 0 13 0;
#X connect 12 1 6 1;
#X connect 13 0 1 0;
#X connect 13 1 0 0;
#X connect 14 0 4 0;
#X connect 14 1 2 1;
#X connect 15 0 5 0;
#X connect 15 1 10 1;
#X connect 17 0 12 0;
#X restore 169 260 pd iterate2D;
#X obj 169 233 list;
#X connect 0 0 20 0;
#X connect 1 0 19 0;
#X connect 4 0 15 2;
#X connect 5 0 4 1;
#X connect 6 0 17 0;
#X connect 8 0 7 0;
#X connect 9 0 4 0;
#X connect 10 0 11 0;
#X connect 11 0 9 0;
#X connect 11 1 5 0;
#X connect 12 0 2 0;
#X connect 13 0 12 0;
#X connect 14 0 15 0;
#X connect 14 1 10 0;
#X connect 15 0 16 0;
#X connect 16 0 12 0;
#X connect 17 0 12 0;
#X connect 17 1 26 0;
#X connect 19 0 21 1;
#X connect 19 1 5 1;
#X connect 20 0 6 0;
#X connect 20 1 21 0;
#X connect 20 2 9 1;
#X connect 21 0 23 0;
#X connect 21 1 22 0;
#X connect 22 0 26 1;
#X connect 22 1 13 0;
#X connect 23 0 6 1;
#X connect 23 1 24 0;
#X connect 24 0 8 0;
#X connect 25 0 14 0;
#X connect 26 0 25 0;
