#N canvas 0 0 298 308 10;
#X declare -lib iemmatrix;
#N canvas 296 357 512 426 companion_matrix 0;
#X obj 308 276 mtx_eye;
#X obj 131 219 mtx;
#X obj 377 66 list length;
#X obj 308 254 f;
#X obj 389 232 f;
#X obj 219 21 inlet;
#X obj 131 401 outlet;
#X obj 389 274 mtx_zeros;
#X obj 131 262 mtx_* -1;
#X obj 403 158 - 2;
#X obj 130 178 - 1;
#X obj 377 89 moses 3;
#X obj 33 177 list split 1;
#X obj 131 240 mtx_./ 1;
#X obj 131 364 mtx_concat col;
#X msg 131 198 size 1 \$1;
#X msg 389 253 \$1 1;
#X obj 308 301 mtx_concat row;
#X obj 323 204 t f f, f 14;
#X obj 308 158 t b b, f 14;
#X obj 67 83 t l f;
#X obj 308 66 t b l;
#X obj 219 44 t l l;
#X obj 376 112 t a a;
#X connect 0 0 17 0;
#X connect 1 0 13 0;
#X connect 2 0 11 0;
#X connect 3 0 0 0;
#X connect 4 0 16 0;
#X connect 5 0 22 0;
#X connect 7 0 17 1;
#X connect 8 0 14 0;
#X connect 9 0 18 0;
#X connect 10 0 15 0;
#X connect 11 1 23 0;
#X connect 12 1 1 0;
#X connect 13 0 8 0;
#X connect 14 0 6 0;
#X connect 15 0 1 0;
#X connect 16 0 7 0;
#X connect 17 0 14 1;
#X connect 18 0 3 1;
#X connect 18 1 4 1;
#X connect 19 0 3 0;
#X connect 19 1 4 0;
#X connect 20 0 12 0;
#X connect 20 1 13 1;
#X connect 21 0 19 0;
#X connect 21 1 2 0;
#X connect 22 0 20 0;
#X connect 22 1 21 0;
#X connect 23 0 10 0;
#X connect 23 1 9 0;
#X restore 100 135 pd companion_matrix;
#X obj 100 47 inlet;
#X obj 100 159 mtx_eig;
#X obj 182 223 outlet im;
#X obj 76 221 outlet re;
#X obj 85 266 declare -lib iemmatrix;
#X connect 0 0 2 0;
#X connect 1 0 0 0;
#X connect 2 0 4 0;
#X connect 2 1 3 0;
