#N canvas 308 65 872 844 10;
#X declare -lib iemmatrix;
#X msg 128 128 clear;
#X obj 73 149 until 3;
#X obj 98 168 + 1;
#X obj 113 187 * 20;
#X obj 145 187 + 80;
#X obj 73 87 \$1;
#X obj 73 107 clip 0 64;
#X obj 73 207 makefilename \$0-track%d;
#X obj 73 228 t a a;
#X obj 73 249 pack s 1;
#X obj 51 362 soundfiler;
#X obj 51 24 inlet;
#X msg 305 249 read -resize \$1;
#X obj 266 249 t a b;
#X obj 305 270 t l;
#X obj 51 323 list;
#X obj 51 342 list trim;
#X obj 217 270 list prepend;
#X obj 51 46 symbol \$2;
#X msg 73 269 obj 100 \$2 table \$1;
#X obj 73 128 t f b b;
#X obj 267 470 until 3;
#X obj 292 489 + 1;
#X obj 267 413 \$1;
#X obj 267 432 clip 0 64;
#X obj 287 529 makefilename \$0-track%d;
#X msg 152 427 clear;
#X obj 122 405 t b b;
#X obj 267 451 t f b;
#X obj 267 758 mtx;
#X text 571 87 pd >=0.39-2;
#X msg 267 633 row \$1;
#X obj 267 652 list append;
#X obj 349 652 spigot;
#X obj 388 632 == 1;
#X obj 267 508 t f f f;
#X obj 287 594 t l l;
#X obj 349 730 mtx_zeros;
#X obj 349 691 t b f;
#X obj 349 711 pack \$1 0;
#X obj 267 780 outlet;
#X obj 267 671 list trim;
#X obj 51 382 != 0;
#X obj 83 382 sel 1;
#N canvas 569 312 599 627 \$0-subpatch 0;
#X obj 100 100 table 1036-track1;
#X obj 100 120 table 1036-track2;
#X obj 100 140 table 1036-track3;
#X obj 100 160 table 1036-track4;
#X obj 100 180 table 1036-track5;
#X obj 100 200 table 1036-track6;
#X obj 100 220 table 1036-track7;
#X obj 100 240 table 1036-track8;
#X obj 100 260 table 1036-track9;
#X obj 100 280 table 1036-track10;
#X restore 157 315 pd \$0-subpatch;
#X obj 152 447 s \$0-tosubpatch;
#X text 601 115 \$1 ... nchan \$2 ... filename;
#X text 474 73 requires iemlib \, iemmatrix;
#X obj 73 187 t f f;
#X obj 51 67 t b b a;
#X obj 122 382 t b b;
#X msg 127 149 1;
#X obj 73 168 i;
#X text 162 166 dynamic patching;
#X text 376 229 gathering command for soundfiler;
#X text 127 362 loading tracks into subpatch-tables;
#X msg 321 470 1;
#X obj 267 489 i;
#X text 421 632 initialize matrix with zeros;
#X text 329 506 stepping through the subpatch-tables;
#X text 92 20 name/bang;
#X text 286 30 reading multichannel audiofiles into matrix rows;
#X obj 349 671 list length;
#X obj 73 290 s pd-\$0-subpatch;
#X obj 287 574 array get;
#X obj 287 549 t b s;
#X obj 595 326 declare -lib iemmatrix;
#X connect 0 0 63 0;
#X connect 1 0 52 0;
#X connect 2 0 52 1;
#X connect 3 0 4 0;
#X connect 4 0 9 1;
#X connect 5 0 6 0;
#X connect 6 0 20 0;
#X connect 7 0 8 0;
#X connect 8 0 9 0;
#X connect 8 1 17 0;
#X connect 9 0 19 0;
#X connect 10 0 42 0;
#X connect 11 0 18 0;
#X connect 12 0 17 1;
#X connect 13 0 12 0;
#X connect 13 1 17 1;
#X connect 14 0 17 1;
#X connect 15 0 16 0;
#X connect 16 0 10 0;
#X connect 17 0 14 0;
#X connect 17 0 15 1;
#X connect 18 0 49 0;
#X connect 19 0 63 0;
#X connect 20 0 1 0;
#X connect 20 1 51 0;
#X connect 20 2 0 0;
#X connect 21 0 57 0;
#X connect 22 0 57 1;
#X connect 23 0 24 0;
#X connect 24 0 28 0;
#X connect 25 0 65 0;
#X connect 26 0 45 0;
#X connect 27 0 29 0;
#X connect 27 1 26 0;
#X connect 28 0 21 0;
#X connect 28 1 56 0;
#X connect 29 0 40 0;
#X connect 31 0 32 0;
#X connect 32 0 41 0;
#X connect 33 0 62 0;
#X connect 34 0 33 1;
#X connect 35 0 31 0;
#X connect 35 1 25 0;
#X connect 35 2 34 0;
#X connect 36 0 32 1;
#X connect 36 1 33 0;
#X connect 37 0 29 1;
#X connect 38 0 39 0;
#X connect 38 1 39 1;
#X connect 39 0 37 0;
#X connect 41 0 29 0;
#X connect 42 0 43 0;
#X connect 43 0 50 0;
#X connect 48 0 7 0;
#X connect 48 1 3 0;
#X connect 49 0 15 0;
#X connect 49 1 5 0;
#X connect 49 2 13 0;
#X connect 50 0 27 0;
#X connect 50 1 23 0;
#X connect 51 0 52 1;
#X connect 52 0 2 0;
#X connect 52 0 48 0;
#X connect 56 0 57 1;
#X connect 57 0 22 0;
#X connect 57 0 35 0;
#X connect 62 0 38 0;
#X connect 64 0 36 0;
#X connect 65 0 64 0;
#X connect 65 1 64 2;
