#N canvas 0 0 514 300 10;
#X declare -lib iemmatrix;
#X obj 47 142 mtx_polyval;
#X msg 122 100 matrix 1 5 1 -2 3 2 1;
#X msg 43 73 matrix 1 3 0 1 2;
#X obj 47 174 mtx_print;
#X text 185 152 evaluate polynomial;
#X text 181 178 1*x^4 -2*x^3 +3*x^2 +2*x^1 +1*x^0;
#X text 45 13 [mtx_polyval] evaluates polynomial with given coefficients;
#X text 94 33 at given values for x;
#X text 252 241 Franz Zotter \, 2010;
#N canvas 477 377 494 171 META 0;
#X text 12 85 OUTLET_0 matrix;
#X text 12 125 HELP_PATCH_AUTHORS IOhannes m zmölnig;
#X text 12 25 LICENSE GPL-2+;
#X text 12 65 INLET_0 matrix;
#X text 12 5 KEYWORDS control matrix;
#X text 12 105 AUTHOR Franz Zotter;
#X text 12 44 DESCRIPTION evaluate polynomials with coefficients, f 81;
#X restore 394 268 pd META;
#X obj 249 268 declare -lib iemmatrix;
#X connect 0 0 3 0;
#X connect 1 0 0 1;
#X connect 2 0 0 0;
