#N canvas 683 47 450 551 10;
#X declare -lib iemmatrix;
#X obj 44 279 t a a;
#X obj 101 377 mtx_concat;
#X obj 44 378 mtx_.*;
#X obj 296 139 mtx_slice 1 1 1 end;
#X obj 196 209 mtx_cos;
#X obj 169 253 mtx_sin;
#X obj 169 183 t a a;
#X obj 101 329 mtx_.*;
#X obj 169 282 mtx_.*;
#X obj 196 230 mtx_.*;
#X obj 44 408 mtx_concat;
#X obj 44 93 t a a a;
#X text 229 451 Franz Zotter \, 2009;
#X text 231 428 [iemmatrix];
#X obj 44 255 mtx_slice 2 1 2 end;
#X obj 169 159 mtx_slice 3 1 3 end;
#X obj 44 356 mtx_cos;
#X obj 101 307 mtx_sin;
#X obj 235 506 declare -lib iemmatrix;
#X obj 44 17 inlet [r \, phi \, theta];
#X obj 44 467 outlet [x \, y \, z];
#X obj 169 305 t a a;
#X obj 296 162 t a a;
#X connect 0 0 16 0;
#X connect 0 1 17 0;
#X connect 1 0 10 1;
#X connect 2 0 10 0;
#X connect 3 0 22 0;
#X connect 4 0 9 0;
#X connect 5 0 8 0;
#X connect 6 0 5 0;
#X connect 6 1 4 0;
#X connect 7 0 1 0;
#X connect 8 0 21 0;
#X connect 9 0 1 1;
#X connect 10 0 20 0;
#X connect 11 0 14 0;
#X connect 11 1 15 0;
#X connect 11 2 3 0;
#X connect 14 0 0 0;
#X connect 15 0 6 0;
#X connect 16 0 2 0;
#X connect 17 0 7 0;
#X connect 19 0 11 0;
#X connect 21 0 7 1;
#X connect 21 1 2 1;
#X connect 22 0 9 1;
#X connect 22 1 8 1;
