#N canvas 0 0 450 300 10;
#X declare -lib iemmatrix;
#X obj 80 229 mtx_repmat;
#X obj 173 232 mtx_repmat;
#X msg 272 212 1 \$1;
#X msg 137 208 \$1 1;
#X obj 128 120 mtx_size;
#X obj 233 121 mtx_size;
#X obj 173 168 mtx, f 6;
#X obj 80 98 t a a;
#X obj 173 147 t b f, f 17;
#X obj 80 259 outlet X;
#X obj 173 258 outlet Y;
#X obj 206 69 mtx_:;
#X obj 80 69 mtx_:;
#X obj 80 42 inlet x;
#X obj 206 42 inlet y;
#X obj 173 188 mtx_transpose;
#X obj 206 92 t a a;
#X obj 255 256 declare -lib iemmatrix;
#X connect 0 0 9 0;
#X connect 1 0 10 0;
#X connect 2 0 1 1;
#X connect 3 0 0 1;
#X connect 4 1 8 0;
#X connect 5 1 3 0;
#X connect 6 0 15 0;
#X connect 7 0 0 0;
#X connect 7 1 4 0;
#X connect 8 0 6 0;
#X connect 8 1 2 0;
#X connect 11 0 16 0;
#X connect 12 0 7 0;
#X connect 13 0 12 0;
#X connect 14 0 11 0;
#X connect 15 0 1 0;
#X connect 16 0 6 1;
#X connect 16 1 5 0;
