#N canvas 439 256 635 379 10;
#X declare -lib iemmatrix;
#X text 482 28 part of iemmatrix;
#X text 166 69 writes the rows of a matrix into a multichannel sound file;
#X obj 33 116 mtx_rand;
#X msg 32 207 bang;
#X obj 32 249 mtx_print file;
#X obj 32 228 mtx_sfread 10 ./test_mtx_sfwrite.wav;
#X obj 33 146 mtx_sfwrite ./test_mtx_sfwrite.wav;
#X text 43 34 [mtx_sfwrite][mtx_sfread];
#X msg 33 97 10 4;
#X obj 95 116 mtx_print original;
#N canvas 477 377 494 171 META 0;
#X text 12 105 AUTHOR IOhannes m zmoelnig;
#X text 12 85 OUTLET_0 matrix;
#X text 12 125 HELP_PATCH_AUTHORS IOhannes m zmölnig;
#X text 12 25 LICENSE GPL-2+;
#X text 12 65 INLET_0 matrix;
#X text 12 5 KEYWORDS control matrix;
#X text 12 44 DESCRIPTION write multichannel soundfile from matrix, f 81;
#X restore 574 308 pd META;
#X obj 429 308 declare -lib iemmatrix;
#X connect 2 0 6 0;
#X connect 2 0 9 0;
#X connect 3 0 5 0;
#X connect 5 0 4 0;
#X connect 8 0 2 0;
