#N canvas 426 117 622 300 10;
#X declare -lib iemmatrix;
#X obj 164 270 mtx_print atan2;
#X text 368 248 Franz Zotter 2007;
#X text 133 15 arcus tangent with range from -pi...+pi;
#X obj 164 108 t a a;
#X obj 194 129 mtx_print y;
#X obj 383 111 t a a;
#X obj 413 132 mtx_print x;
#X obj 164 237 mtx_* 0;
#X obj 334 200 atan;
#X msg 334 181 1;
#X msg 334 219 45 \$1;
#X obj 334 239 /;
#X obj 334 161 loadbang;
#X obj 164 182 mtx_atan2;
#X msg 383 52 matrix 1 8 1 1 0 -1 -1 -1 0 1;
#X msg 164 52 matrix 1 8 0 1 1 1 0 -1 -1 -1;
#N canvas 800 302 494 171 META 0;
#X text 12 105 AUTHOR IOhannes m zmoelnig;
#X text 12 85 OUTLET_0 matrix;
#X text 12 125 HELP_PATCH_AUTHORS IOhannes m zmölnig;
#X text 12 25 LICENSE GPL-2+;
#X text 12 65 INLET_0 matrix;
#X text 12 5 KEYWORDS control matrix;
#X text 12 44 DESCRIPTION arctangent (atan2) of each element of a matrix, f 67;
#X restore 554 17 pd META;
#X obj 409 18 declare -lib iemmatrix;
#X connect 3 0 13 0;
#X connect 3 1 4 0;
#X connect 5 0 13 1;
#X connect 5 1 6 0;
#X connect 7 0 0 0;
#X connect 8 0 10 0;
#X connect 9 0 8 0;
#X connect 10 0 11 0;
#X connect 11 0 7 1;
#X connect 12 0 9 0;
#X connect 13 0 7 0;
#X connect 14 0 5 0;
#X connect 15 0 3 0;
