#N canvas 0 0 450 300 10;
#X declare -lib iemmatrix;
#X obj 71 39 inlet realA;
#X obj 152 39 inlet imagA;
#X obj 71 256 outlet real;
#X obj 71 204 mtx_+, f 14;
#X obj 71 110 t a a;
#X obj 152 110 t a a;
#X obj 152 135 mtx_.*;
#X obj 71 135 mtx_.*;
#X text 175 79 complex squared absolute values;
#X obj 235 256 declare -lib iemmatrix;
#X connect 0 0 4 0;
#X connect 1 0 5 0;
#X connect 3 0 2 0;
#X connect 4 0 7 0;
#X connect 4 1 7 1;
#X connect 5 0 6 0;
#X connect 5 1 6 1;
#X connect 6 0 3 1;
#X connect 7 0 3 0;
