#N canvas 133 130 841 379 10;
#X declare -lib iemmatrix;
#X msg 33 59 bang;
#X text 482 28 part of iemmatrix;
#X obj 33 132 t a a;
#X obj 33 232 mtx_print output;
#X msg 323 112 matrix 1 4 1 2 2 2;
#X msg 464 112 matrix 1 4 2 3 1 2 3;
#X text 43 34 [mtx_fill_rowcol];
#X text 481 186 inletA: matrix/vector with fill values;
#X text 479 247 outleA: matrix containing the fill values;
#X text 481 199 inletB: matrix/vector to be filled;
#X text 481 213 inletC: row matrix/vector;
#X text 481 227 inletD: col matrix/vector;
#X obj 33 194 mtx_fill_rowcol;
#X obj 456 134 mtx_print D_col;
#X obj 297 139 mtx_print C_row;
#X obj 33 83 t b b b b;
#X msg 198 112 2 3;
#X obj 199 133 mtx_zeros;
#X obj 165 155 mtx_print B_orig;
#X obj 75 133 mtx_print A_fill;
#X msg 33 112 matrix 1 4 1 2 3 4;
#N canvas 585 339 494 171 META 0;
#X text 12 105 AUTHOR IOhannes m zmoelnig;
#X text 12 85 OUTLET_0 matrix;
#X text 12 125 HELP_PATCH_AUTHORS IOhannes m zmölnig;
#X text 12 25 LICENSE GPL-2+;
#X text 12 65 INLET_0 matrix;
#X text 12 5 KEYWORDS control matrix;
#X text 12 44 DESCRIPTION fill values into the given row/col indices of a matrix, f 67;
#X restore 724 327 pd META;
#X obj 579 328 declare -lib iemmatrix;
#X text 166 69 fills values into to the given row/col indices of a given matrix.;
#X connect 0 0 15 0;
#X connect 2 0 12 0;
#X connect 2 1 19 0;
#X connect 4 0 14 0;
#X connect 4 0 12 2;
#X connect 5 0 13 0;
#X connect 5 0 12 3;
#X connect 12 0 3 0;
#X connect 15 0 20 0;
#X connect 15 1 16 0;
#X connect 15 2 4 0;
#X connect 15 3 5 0;
#X connect 16 0 17 0;
#X connect 17 0 12 1;
#X connect 17 0 18 0;
#X connect 20 0 2 0;
