#N canvas 570 39 286 303 10;
#X declare -lib iemmatrix;
#X obj 94 26 inlet;
#X obj 94 237 outlet;
#X obj 151 97 sin;
#X obj 94 95 cos;
#X obj 151 119 t f f;
#X obj 151 140 * -1;
#X obj 94 182 mtx_diag;
#X obj 94 207 mtx_+, f 10;
#X obj 151 161 pack f f;
#X obj 94 54 t f f, f 10;
#X obj 151 182 mtx_diegg;
#X msg 94 161 \$1 \$1;
#X obj 95 276 declare -lib iemmatrix;
#X connect 0 0 9 0;
#X connect 2 0 4 0;
#X connect 3 0 11 0;
#X connect 4 0 5 0;
#X connect 4 1 8 1;
#X connect 5 0 8 0;
#X connect 6 0 7 0;
#X connect 7 0 1 0;
#X connect 8 0 10 0;
#X connect 9 0 3 0;
#X connect 9 1 2 0;
#X connect 10 0 7 1;
#X connect 11 0 6 0;
