#N canvas 133 130 683 293 10;
#X declare -lib iemmatrix;
#X obj 75 133 mtx_print A;
#X msg 33 59 bang;
#X text 482 28 part of iemmatrix;
#X obj 33 132 t a a;
#X text 384 152 inletA: matrix/vector;
#X obj 33 232 mtx_print output;
#X obj 33 83 t b b b;
#X obj 242 135 mtx_print B_row;
#X msg 241 110 matrix 1 2 3 1;
#X text 43 34 [mtx_index_col_grid];
#X text 166 69 finds the values to the col grid indices in a given matrix.;
#X text 384 165 inletB: col matrix/vector;
#X text 382 199 outleA: matrix containing the indexed cols;
#X obj 33 194 mtx_index_col_grid;
#X msg 33 112 matrix 3 3 1 2 3 1 2 3 1 2 3;
#N canvas 426 373 494 171 META 0;
#X text 12 105 AUTHOR IOhannes m zmoelnig;
#X text 12 85 OUTLET_0 matrix;
#X text 12 125 HELP_PATCH_AUTHORS IOhannes m zmölnig;
#X text 12 25 LICENSE GPL-2+;
#X text 12 65 INLET_0 matrix;
#X text 12 5 KEYWORDS control matrix;
#X text 12 44 DESCRIPTION find the values to the column grid indices in a matrix, f 67;
#X restore 584 237 pd META;
#X obj 439 238 declare -lib iemmatrix;
#X connect 1 0 6 0;
#X connect 3 0 13 0;
#X connect 3 1 0 0;
#X connect 6 0 14 0;
#X connect 6 1 8 0;
#X connect 8 0 7 0;
#X connect 8 0 13 1;
#X connect 13 0 5 0;
#X connect 14 0 3 0;
