#N canvas 429 353 838 383 10;
#X obj 53 121 until 3;
#X obj 78 146 + 1;
#X text 425 51 reading multichannel soundfiles via soundfiler and dynamically created table arrays into multichannel matrix;
#X obj 239 325 soundfiler;
#X obj 290 50 inlet;
#X obj 239 305 list trim;
#X obj 311 285 list prepend;
#X text 399 30 pd >=0.39-2;
#N canvas 569 312 599 627 \$0-subpatch 0;
#X obj 100 100 table 1037-track1 3;
#X obj 100 120 table 1037-track2 3;
#X obj 100 140 table 1037-track3 3;
#X obj 100 160 table 1037-track4 3;
#X obj 100 180 table 1037-track5 3;
#X obj 100 200 table 1037-track6 3;
#X obj 100 220 table 1037-track7 3;
#X obj 100 240 table 1037-track8 3;
#X obj 100 260 table 1037-track9 3;
#X obj 100 280 table 1037-track10 3;
#X restore 430 315 pd \$0-subpatch;
#X obj 34 23 inlet;
#X text 35 4 matrix;
#X obj 53 62 mtx_size;
#X text 228 50 filename;
#X obj 53 82 clip 1 64;
#X obj 53 270 mtx;
#X msg 53 250 row \$1;
#X obj 53 290 list prepend 0;
#X obj 53 310 list trim;
#X msg 533 211 clear;
#X obj 430 142 until 3;
#X obj 469 211 * 20;
#X obj 501 211 + 80;
#X obj 430 231 makefilename \$0-track%d;
#X obj 430 122 t f b b;
#X obj 53 190 t f f;
#X obj 53 101 t f b f;
#X text 427 78 dynamic table subpatch on dimension change;
#X obj 430 251 pack s 1 1;
#X msg 430 271 obj 100 \$2 table \$1 \$3;
#X msg 239 265 write -wave -bytes 4 \$1;
#X obj 239 285 list append;
#X obj 34 42 t b a a b;
#X msg 106 121 1;
#X obj 53 146 i;
#X msg 483 142 1;
#X obj 455 162 + 1;
#X obj 430 162 i;
#X obj 430 211 t f f;
#X text 102 5 writing matrix rows into multichannel;
#X text 102 22 audio files;
#X obj 239 245 symbol \$1;
#X text 535 28 \$1 ... filename;
#X obj 80 210 makefilename \$0-track%d;
#X obj 53 334 send;
#X obj 80 230 t s s;
#X obj 430 294 send pd-\$0-subpatch;
#X obj 430 185 t a a;
#X obj 53 168 t f f;
#X obj 311 305 t l l;
#X text 396 15 requires iemmatrix;
#X connect 0 0 33 0;
#X connect 1 0 33 1;
#X connect 4 0 40 1;
#X connect 5 0 3 0;
#X connect 6 0 48 0;
#X connect 9 0 31 0;
#X connect 11 0 13 0;
#X connect 11 1 27 2;
#X connect 13 0 25 0;
#X connect 14 0 16 0;
#X connect 15 0 14 0;
#X connect 16 0 17 0;
#X connect 17 0 43 0;
#X connect 18 0 45 0;
#X connect 19 0 36 0;
#X connect 20 0 21 0;
#X connect 21 0 27 1;
#X connect 22 0 27 0;
#X connect 23 0 19 0;
#X connect 23 1 34 0;
#X connect 23 2 18 0;
#X connect 24 0 15 0;
#X connect 24 1 42 0;
#X connect 25 0 0 0;
#X connect 25 1 32 0;
#X connect 25 2 23 0;
#X connect 27 0 28 0;
#X connect 28 0 45 0;
#X connect 29 0 30 0;
#X connect 30 0 5 0;
#X connect 31 0 40 0;
#X connect 31 1 11 0;
#X connect 31 2 14 1;
#X connect 31 3 6 1;
#X connect 32 0 33 1;
#X connect 33 0 47 0;
#X connect 34 0 36 1;
#X connect 35 0 36 1;
#X connect 36 0 46 0;
#X connect 37 0 22 0;
#X connect 37 1 20 0;
#X connect 40 0 29 0;
#X connect 42 0 44 0;
#X connect 44 0 43 1;
#X connect 44 1 6 0;
#X connect 46 0 37 0;
#X connect 46 1 35 0;
#X connect 47 0 24 0;
#X connect 47 1 1 0;
#X connect 48 0 30 1;
#X connect 48 1 6 1;
