#N canvas 439 256 621 360 10;
#X declare -lib iemmatrix;
#X text 482 28 part of iemmatrix;
#X obj 33 116 mtx_rand;
#X msg 32 207 bang;
#X obj 32 249 mtx_print file;
#X obj 32 228 mtx_sfread 10 ./test_mtx_sfwrite.wav;
#X obj 33 146 mtx_sfwrite ./test_mtx_sfwrite.wav;
#X msg 33 94 10 3;
#X obj 94 116 mtx_print original;
#X text 43 34 [mtx_sfread][mtx_sfwrite];
#X text 165 69 reads the rows of a matrix from a multichannel sound file;
#N canvas 584 572 494 171 META 0;
#X text 12 105 AUTHOR IOhannes m zmoelnig;
#X text 12 85 OUTLET_0 matrix;
#X text 12 125 HELP_PATCH_AUTHORS IOhannes m zmölnig;
#X text 12 25 LICENSE GPL-2+;
#X text 12 65 INLET_0 matrix;
#X text 12 5 KEYWORDS control matrix;
#X text 12 44 DESCRIPTION read multichannel soundfiles into matrix, f 81;
#X restore 554 308 pd META;
#X obj 409 308 declare -lib iemmatrix;
#X connect 1 0 5 0;
#X connect 1 0 7 0;
#X connect 2 0 4 0;
#X connect 4 0 3 0;
#X connect 6 0 1 0;
