#N canvas 293 248 761 520 12;
#X declare -lib iemmatrix;
#X text 53 27 show a matrix;
#X msg 35 228 5;
#X obj 35 253 mtx_eye;
#X obj 35 353 mtx_show;
#N canvas 460 154 494 171 META 0;
#X text 12 105 AUTHOR IOhannes m zmoelnig;
#X text 12 125 HELP_PATCH_AUTHORS IOhannes m zmölnig;
#X text 12 25 LICENSE GPL-2+;
#X text 12 65 INLET_0 matrix;
#X text 12 5 KEYWORDS control matrix;
#X obj 16 147 declare -lib iemmatrix;
#X text 12 44 DESCRIPTION show a matrix;
#X restore 656 9 pd META;
#X msg 100 227 8 4;
#X obj 100 252 mtx_ones;
#X msg 176 227 4 7;
#X obj 176 252 mtx_rand;
#X obj 140 84 mtx_show 4;
#X obj 251 83 mtx_show 2 8;
#X text 286 288 the size of [mtx_show] adjusts automatically according to the dimensions of the input matrix (and the required digits).;
#X text 366 370 NOTE: this object is rather slow.;
#X text 410 393 it's a nice interface for debugging \, but it probably shouldn't be used in production., f 36;
#X text 52 62 arguments specify the initial size.;
#X obj 54 85 mtx_show;
#X obj 35 498 mtx_print show;
#X text 282 260 displayed values are clamped to 3 decimals.;
#X connect 1 0 2 0;
#X connect 2 0 3 0;
#X connect 3 0 16 0;
#X connect 5 0 6 0;
#X connect 6 0 3 0;
#X connect 7 0 8 0;
#X connect 8 0 3 0;
