#N canvas 175 67 466 602 10;
#X declare -lib iemmatrix;
#X obj 80 70 inlet;
#X obj 80 91 t a a;
#X obj 194 197 mtx_size, f 20;
#X obj 181 70 inlet;
#X text 78 54 matrix;
#X obj 181 90 mtx_:;
#X obj 194 296 mtx;
#X obj 194 316 mtx_repmat;
#X obj 194 339 t a a;
#X obj 221 361 mtx_size, f 10;
#X obj 221 402 mtx_:;
#X obj 221 482 mtx_repmat;
#X obj 194 511 mtx_+;
#X obj 25 568 outlet;
#X text 175 55 col_idcs;
#X obj 221 422 mtx_transpose;
#X obj 221 442 mtx_- 1;
#X obj 221 462 mtx_* 1, f 16;
#X msg 278 391 1 \$1;
#X msg 251 294 \$1 1;
#X msg 221 382 1 \$1;
#X obj 25 69 inlet;
#X text 28 54 matrix;
#X text 85 40 orig;
#X text 23 41 fill;
#X obj 25 544 mtx_fill;
#X obj 149 240 spigot 0;
#X obj 181 110 t a a;
#X obj 214 240 > 0;
#X obj 135 566 declare -lib iemmatrix;
#X text 316 107 fills in elements into the given columns of a matrix, f 19;
#X obj 194 217 t b f f;
#X connect 0 0 1 0;
#X connect 1 0 2 0;
#X connect 1 1 25 1;
#X connect 2 0 31 0;
#X connect 2 1 17 1;
#X connect 3 0 5 0;
#X connect 5 0 27 0;
#X connect 6 0 7 0;
#X connect 7 0 8 0;
#X connect 8 0 12 0;
#X connect 8 1 9 0;
#X connect 9 0 20 0;
#X connect 9 1 18 0;
#X connect 10 0 15 0;
#X connect 11 0 12 1;
#X connect 12 0 25 2;
#X connect 15 0 16 0;
#X connect 16 0 17 0;
#X connect 17 0 11 0;
#X connect 18 0 11 1;
#X connect 19 0 7 1;
#X connect 20 0 10 0;
#X connect 21 0 25 0;
#X connect 25 0 13 0;
#X connect 26 0 6 0;
#X connect 27 0 26 0;
#X connect 27 1 6 1;
#X connect 28 0 26 1;
#X connect 31 0 6 0;
#X connect 31 1 28 0;
#X connect 31 2 19 0;
