#N canvas 83 338 650 379 10;
#X declare -lib iemmatrix;
#X obj 111 142 mtx_print A;
#X msg 33 88 bang;
#X text 482 28 part of iemmatrix;
#X text 267 190 outleA: matrix containing row indices;
#X text 269 209 outletB: matrix containing col indices;
#X obj 33 132 t a a;
#X obj 33 201 mtx_print row;
#X obj 140 200 mtx_print col;
#X obj 33 163 mtx_find_rowcol;
#X text 265 149 inletA: matrix/vector;
#X text 166 69 calculates the row/col indices of the nonzero elements in a matrix;
#X msg 33 112 matrix 2 3 1 0 1 0 1 1;
#X text 43 34 [mtx_find_rowcol];
#N canvas 460 154 494 171 META 0;
#X text 12 105 AUTHOR IOhannes m zmoelnig;
#X text 12 85 OUTLET_0 matrix;
#X text 12 125 HELP_PATCH_AUTHORS IOhannes m zmölnig;
#X text 12 25 LICENSE GPL-2+;
#X text 12 65 INLET_0 matrix;
#X text 12 5 KEYWORDS control matrix;
#X text 12 44 DESCRIPTION calculates the row/col indices of nonzero elements in a matrix, f 77;
#X restore 584 327 pd META;
#X obj 439 328 declare -lib iemmatrix;
#X connect 1 0 11 0;
#X connect 5 0 8 0;
#X connect 5 1 0 0;
#X connect 8 0 6 0;
#X connect 8 1 7 0;
#X connect 11 0 5 0;
