#N canvas -44 0 568 374 10;
#X declare -lib iemmatrix;
#X obj 265 20 inlet;
#X text 261 0 row_idcs;
#X obj 265 40 mtx_:;
#X obj 265 103 mtx_- 1;
#X obj 277 209 mtx;
#X obj 277 229 mtx_* 1;
#X obj 277 249 mtx_repmat;
#X msg 342 227 1 \$1;
#X obj 265 79 mtx_transpose;
#X obj 356 20 inlet;
#X obj 356 90 mtx_:;
#X obj 142 202 mtx;
#X obj 142 223 mtx_repmat;
#X text 342 0 col_idcs;
#X msg 207 200 \$1 1;
#X obj 70 20 inlet;
#X text 68 4 matrix;
#X obj 142 283 mtx_+, f 23;
#X obj 70 329 outlet;
#X obj 70 305 mtx_index;
#X obj 383 143 mtx_size;
#X obj 207 176 mtx_size;
#X obj 70 83 t a a;
#X obj 97 109 mtx_size;
#X obj 295 326 declare -lib iemmatrix;
#X obj 265 126 t a a;
#X obj 356 110 t a a;
#X text 396 168 slices out matrix rows and columns at the given row and col grid indices, f 17;
#X obj 277 183 t b f, f 7;
#X obj 142 142 t b f;
#X connect 0 0 2 0;
#X connect 2 0 8 0;
#X connect 3 0 25 0;
#X connect 4 0 5 0;
#X connect 5 0 6 0;
#X connect 6 0 17 1;
#X connect 7 0 6 1;
#X connect 8 0 3 0;
#X connect 9 0 10 0;
#X connect 10 0 26 0;
#X connect 11 0 12 0;
#X connect 12 0 17 0;
#X connect 14 0 12 1;
#X connect 15 0 22 0;
#X connect 17 0 19 1;
#X connect 19 0 18 0;
#X connect 20 0 7 0;
#X connect 21 0 14 0;
#X connect 22 0 19 0;
#X connect 22 1 23 0;
#X connect 23 1 29 0;
#X connect 25 0 21 0;
#X connect 25 1 4 1;
#X connect 26 0 11 1;
#X connect 26 1 20 0;
#X connect 28 0 4 0;
#X connect 28 1 5 1;
#X connect 29 0 11 0;
#X connect 29 1 28 0;
