#N canvas 145 446 668 361 10;
#X declare -lib iemmatrix;
#X obj 133 198 mtx_tab \$0-table;
#X obj 435 97 table \$0-table;
#X obj 131 120 mtx_rand;
#X obj 133 141 t a a;
#X obj 173 141 mtx_print orig;
#X obj 133 289 mtx_print outlet;
#X obj 311 125 mtx_zeros;
#X msg 311 105 3 4;
#X obj 264 101 bng 15 250 50 0 empty empty empty 0 -6 0 8 #fcfcfc #000000 #000000;
#X msg 131 99 2 3;
#X msg 86 122 row 1;
#X obj 258 243 print outlet;
#X msg -1 122 row 1 1 2 3;
#X text 478 4 part of iemmatrix;
#X text 27 7 [mtx_tab];
#X text 92 28 is a matrix using a table for local/global storage of its data. for the full palette of matrix commands refer to the "mtx" help;
#X text 487 158 see also:;
#X obj 558 158 mtx;
#X text 433 81 local table;
#X obj 383 215 mtx_tab \$0-table;
#X obj 383 260 mtx_print other;
#X obj 383 237 mtx_+ 1;
#X obj 383 193 bng 15 250 50 0 empty empty empty 0 -6 0 8 #fcfcfc #000000 #000000;
#X msg 423 191 ones 1 3;
#X obj 133 223 route matrix;
#X obj 133 244 list prepend matrix;
#X obj 133 267 list trim;
#N canvas 793 461 494 171 META 0;
#X text 12 105 AUTHOR IOhannes m zmoelnig;
#X text 12 85 OUTLET_0 matrix;
#X text 12 125 HELP_PATCH_AUTHORS IOhannes m zmölnig;
#X text 12 25 LICENSE GPL-2+;
#X text 12 65 INLET_0 matrix;
#X text 12 5 KEYWORDS control matrix;
#X text 13 44 DESCRIPTION matrix with a table to store its data, f 81;
#X restore 594 28 pd META;
#X obj 449 28 declare -lib iemmatrix;
#X connect 0 0 24 0;
#X connect 2 0 3 0;
#X connect 3 0 0 0;
#X connect 3 1 4 0;
#X connect 6 0 0 1;
#X connect 7 0 6 0;
#X connect 8 0 0 0;
#X connect 9 0 2 0;
#X connect 10 0 0 0;
#X connect 12 0 0 0;
#X connect 19 0 21 0;
#X connect 21 0 20 0;
#X connect 22 0 19 0;
#X connect 23 0 19 0;
#X connect 24 0 25 0;
#X connect 24 1 11 0;
#X connect 25 0 26 0;
#X connect 26 0 5 0;
