#N canvas 371 58 761 295 12;
#X obj 415 11 inlet matrix;
#X obj 82 39 namecanvas pd-\$0-self;
#N canvas 735 461 450 300 \$0-data 0;
#X coords 0 0 5 5 105 75 2 0 0;
#X restore 100 120 pd \$0-data;
#N canvas 1187 96 450 168 template 0;
#X obj 41 60 s \$0-interaction;
#X obj 41 35 struct \$0-element float x float y float v float c;
#X obj 42 100 drawnumber v 0 0 c;
#X connect 1 0 0 0;
#X restore 247 39 pd template;
#X obj 567 11 outlet;
#N canvas 735 461 450 300 code 0;
#N canvas 1177 423 955 636 resize 0;
#X obj 170 16 inlet matrix;
#X obj 170 41 mtx_size;
#X obj 389 455 s pd-\$0-self;
#X obj 389 267 * 49;
#X obj 442 242 t f f;
#X obj 442 265 * 15;
#X obj 389 332 pack 0 0 0 0 0;
#X obj 389 242 t f f;
#X obj 442 288 t f f;
#X obj 482 310 + 20;
#X text 502 339 w dx h dy h0;
#X msg 389 431 goprect 100 100 \$1 \$5;
#X obj 421 405 s pd-\$0-data;
#N canvas 0 0 292 264 sizechange 0;
#X obj 48 87 t a a b;
#X obj 81 146 change;
#X msg 81 171 1;
#X obj 134 146 change;
#X msg 184 147 0;
#X obj 48 202 spigot 1;
#X obj 81 121 unpack;
#X obj 48 227 outlet;
#X obj 48 62 inlet;
#X connect 0 0 5 0;
#X connect 0 1 6 0;
#X connect 0 2 4 0;
#X connect 1 0 2 0;
#X connect 2 0 5 1;
#X connect 3 0 2 0;
#X connect 4 0 5 1;
#X connect 5 0 7 0;
#X connect 6 0 1 0;
#X connect 6 1 3 0;
#X connect 8 0 0 0;
#X restore 202 114 pd sizechange;
#X obj 170 64 pack 0 0;
#N canvas 0 0 450 512 count2d 0;
#X obj 43 27 inlet N M;
#X obj 43 52 t a b;
#X obj 43 102 until;
#X obj 43 127 i;
#X obj 43 152 t f f;
#X obj 43 177 t b f;
#X obj 43 202 f;
#X obj 43 257 until;
#X obj 43 282 i;
#X obj 43 307 t f f;
#X obj 43 332 pack 0 0;
#X obj 75 282 + 1;
#X obj 75 127 + 1;
#X msg 101 54 0;
#X obj 43 230 t f b;
#X msg 96 254 0;
#X msg 43 357 \$2 \$1;
#X obj 43 77 unpack;
#X obj 43 382 outlet n m;
#X connect 0 0 1 0;
#X connect 1 0 17 0;
#X connect 1 1 13 0;
#X connect 2 0 3 0;
#X connect 3 0 4 0;
#X connect 4 0 5 0;
#X connect 4 1 12 0;
#X connect 5 0 6 0;
#X connect 5 1 10 1;
#X connect 6 0 14 0;
#X connect 7 0 8 0;
#X connect 8 0 9 0;
#X connect 9 0 10 0;
#X connect 9 1 11 0;
#X connect 10 0 16 0;
#X connect 11 0 8 1;
#X connect 12 0 3 1;
#X connect 13 0 3 1;
#X connect 14 0 7 0;
#X connect 14 1 15 0;
#X connect 15 0 8 1;
#X connect 16 0 18 0;
#X connect 17 0 2 0;
#X connect 17 1 6 1;
#X restore 202 433 pd count2d;
#X obj 202 316 t a b;
#X obj 234 342 symbol pd-\$0-data;
#X msg 234 367 traverse \$1 \, bang;
#X obj 234 392 pointer;
#X obj 389 209 swap;
#X obj 65 217 outlet;
#X obj 170 87 t a a;
#X obj 504 214 * 7;
#X msg 574 73 3;
#X msg 513 404 clear;
#X msg 421 381 goprect 0 0 \$1 \$3 \, bounds 0 0 \$2 \$4;
#X obj 202 139 t a a b b, f 35;
#N canvas 688 426 450 300 maxchange 0;
#X obj 32 43 inlet;
#X obj 32 165 outlet;
#X obj 104 36 inlet;
#X obj 32 68 max;
#X obj 32 93 t f f;
#X obj 32 118 change;
#X obj 104 61 t f f;
#X msg 136 85 set \$1;
#X connect 0 0 3 0;
#X connect 2 0 6 0;
#X connect 3 0 4 0;
#X connect 4 0 5 0;
#X connect 4 1 3 1;
#X connect 5 0 1 0;
#X connect 6 0 3 1;
#X connect 6 1 7 0;
#X connect 7 0 5 0;
#X restore 472 104 pd maxchange;
#X obj 472 72 t f;
#X obj 472 129 t b f;
#X obj 574 98 t f f;
#X obj 389 357 t a a;
#X obj 472 47 r \$0.maxchars;
#X obj 202 583 append \$0-element y x c;
#X obj 202 458 t l l;
#X obj 202 559 pack 0 0 0;
#X obj 269 478 unpack;
#X obj 269 511 % 2;
#X obj 462 552 print init;
#X obj 269 533 * 222;
#X connect 0 0 1 0;
#X connect 1 0 14 0;
#X connect 1 1 14 1;
#X connect 3 0 6 0;
#X connect 4 0 5 0;
#X connect 4 1 6 3;
#X connect 5 0 8 0;
#X connect 6 0 32 0;
#X connect 7 0 3 0;
#X connect 7 1 6 1;
#X connect 8 0 6 2;
#X connect 8 1 9 0;
#X connect 9 0 6 4;
#X connect 11 0 2 0;
#X connect 13 0 27 0;
#X connect 14 0 22 0;
#X connect 15 0 35 0;
#X connect 16 0 15 0;
#X connect 16 1 17 0;
#X connect 17 0 18 0;
#X connect 18 0 19 0;
#X connect 19 0 34 3;
#X connect 20 0 7 0;
#X connect 20 1 4 0;
#X connect 22 0 21 0;
#X connect 22 1 13 0;
#X connect 23 0 3 1;
#X connect 24 0 31 0;
#X connect 25 0 12 0;
#X connect 26 0 12 0;
#X connect 27 0 16 0;
#X connect 27 1 20 0;
#X connect 27 2 24 0;
#X connect 27 3 25 0;
#X connect 28 0 30 0;
#X connect 29 0 28 0;
#X connect 30 0 3 0;
#X connect 30 1 23 0;
#X connect 31 0 28 1;
#X connect 31 1 23 0;
#X connect 32 0 11 0;
#X connect 32 1 26 0;
#X connect 33 0 29 0;
#X connect 35 0 36 0;
#X connect 35 1 37 0;
#X connect 36 0 34 0;
#X connect 36 0 39 0;
#X connect 37 1 38 0;
#X connect 38 0 40 0;
#X connect 40 0 36 2;
#X restore 75 103 pd resize;
#N canvas 553 111 884 812 values 0;
#N canvas 0 0 450 512 count2d 0;
#X obj 43 27 inlet N M;
#X obj 43 52 t a b;
#X obj 43 102 until;
#X obj 43 127 i;
#X obj 43 152 t f f;
#X obj 43 177 t b f;
#X obj 43 202 f;
#X obj 43 257 until;
#X obj 43 282 i;
#X obj 43 307 t f f;
#X obj 43 332 pack 0 0;
#X obj 75 282 + 1;
#X obj 75 127 + 1;
#X msg 101 54 0;
#X obj 43 230 t f b;
#X msg 96 254 0;
#X msg 43 357 \$2 \$1;
#X obj 43 77 unpack;
#X obj 43 382 outlet n m;
#X connect 0 0 1 0;
#X connect 1 0 17 0;
#X connect 1 1 13 0;
#X connect 2 0 3 0;
#X connect 3 0 4 0;
#X connect 4 0 5 0;
#X connect 4 1 12 0;
#X connect 5 0 6 0;
#X connect 5 1 10 1;
#X connect 6 0 14 0;
#X connect 7 0 8 0;
#X connect 8 0 9 0;
#X connect 9 0 10 0;
#X connect 9 1 11 0;
#X connect 10 0 16 0;
#X connect 11 0 8 1;
#X connect 12 0 3 1;
#X connect 13 0 3 1;
#X connect 14 0 7 0;
#X connect 14 1 15 0;
#X connect 15 0 8 1;
#X connect 16 0 18 0;
#X connect 17 0 2 0;
#X connect 17 1 6 1;
#X restore 386 207 pd count2d;
#X obj 481 86 symbol pd-\$0-data;
#X obj 481 361 pointer;
#X msg 386 312 element \$1 \$2;
#X obj 386 337 matrix;
#X obj 363 41 inlet size;
#X obj 622 45 inlet matrix;
#X obj 386 232 unpack;
#X obj 386 257 + 1;
#X obj 386 282 pack;
#X obj 425 257 + 1;
#X obj 654 135 mtx_int;
#X obj 654 160 mtx_./ 1000;
#X obj 654 110 mtx_.* 1000;
#X obj 654 185 t a a;
#X obj 686 210 mtx_minmax;
#X obj 686 235 abs;
#X obj 686 260 max;
#X obj 753 237 abs;
#X obj 363 526 list fromsymbol;
#X msg 363 496 symbol -\$1;
#X obj 363 551 list length;
#X obj 363 605 i;
#X msg 442 361 next;
#X obj 386 362 t f b;
#X obj 363 60 t b a b;
#X msg 481 111 traverse \$1;
#X obj 386 387 set \$0-element v;
#X obj 161 282 r \$0-interaction;
#X obj 161 307 route change;
#X obj 161 387 pack f f f;
#X obj 622 78 t a a;
#X obj 161 360 + 1;
#X obj 212 360 + 1;
#X msg 161 412 element \$1 \$2 \$3 \, bang;
#X obj 363 632 s \$0.maxchars;
#X obj 161 514 outlet;
#X obj 161 489 matrix;
#X obj 161 332 get \$0-element y x v;
#X obj 298 360 t f f;
#X obj 363 463 f;
#X obj 330 385 * 1000;
#X obj 330 410 int;
#X obj 330 435 / 1000;
#X obj 762 46 inlet matrix(cold);
#X obj 762 71 t a a;
#X connect 0 0 7 0;
#X connect 1 0 26 0;
#X connect 2 0 27 1;
#X connect 3 0 4 0;
#X connect 4 0 24 0;
#X connect 5 0 25 0;
#X connect 6 0 31 0;
#X connect 7 0 8 0;
#X connect 7 1 10 0;
#X connect 8 0 9 0;
#X connect 9 0 3 0;
#X connect 10 0 9 1;
#X connect 11 0 12 0;
#X connect 12 0 14 0;
#X connect 13 0 11 0;
#X connect 14 0 4 1;
#X connect 14 1 15 0;
#X connect 15 0 16 0;
#X connect 15 1 18 0;
#X connect 16 0 17 0;
#X connect 17 0 40 1;
#X connect 18 0 17 1;
#X connect 19 0 21 0;
#X connect 20 0 19 0;
#X connect 21 0 22 0;
#X connect 22 0 35 0;
#X connect 23 0 2 0;
#X connect 24 0 27 0;
#X connect 24 1 23 0;
#X connect 25 0 40 0;
#X connect 25 1 0 0;
#X connect 25 2 1 0;
#X connect 26 0 2 0;
#X connect 28 0 29 0;
#X connect 29 0 38 0;
#X connect 30 0 34 0;
#X connect 31 0 37 0;
#X connect 31 1 13 0;
#X connect 32 0 30 0;
#X connect 33 0 30 1;
#X connect 34 0 37 0;
#X connect 37 0 36 0;
#X connect 38 0 32 0;
#X connect 38 1 33 0;
#X connect 38 2 39 0;
#X connect 39 0 30 2;
#X connect 39 1 41 0;
#X connect 40 0 20 0;
#X connect 41 0 42 0;
#X connect 42 0 43 0;
#X connect 43 0 40 0;
#X connect 44 0 45 0;
#X connect 45 0 37 1;
#X connect 45 1 13 0;
#X restore 76 129 pd values;
#X obj 75 71 t a a;
#X obj 128 22 loadbang;
#N canvas 756 302 450 300 init 0;
#X obj 122 21 inlet;
#X obj 122 274 outlet;
#X msg 154 90 args;
#X obj 154 115 pdcontrol;
#X obj 154 140 route bang float;
#X obj 122 67 t b b;
#X obj 122 195 pack 0 3 3;
#X obj 155 165 t f f;
#X obj 195 165 unpack 0 0;
#X msg 122 220 \$2 \$3;
#X obj 122 245 mtx_zeros;
#X obj 122 44 t b b;
#X msg 239 48 clear;
#X obj 239 73 s pd-\$0-data;
#X connect 0 0 11 0;
#X connect 2 0 3 0;
#X connect 3 0 4 0;
#X connect 4 1 7 0;
#X connect 4 2 8 0;
#X connect 5 0 6 0;
#X connect 5 1 2 0;
#X connect 6 0 9 0;
#X connect 7 0 6 1;
#X connect 7 1 6 2;
#X connect 8 0 6 1;
#X connect 8 1 6 2;
#X connect 9 0 10 0;
#X connect 10 0 1 0;
#X connect 11 0 5 0;
#X connect 11 1 12 0;
#X connect 12 0 13 0;
#X restore 128 46 pd init;
#X obj 28 19 inlet;
#X obj 76 154 outlet;
#X msg 239 48 clear;
#X obj 239 73 s pd-\$0-data;
#X obj 128 71 t a a;
#X connect 0 0 1 0;
#X connect 1 0 6 0;
#X connect 2 0 0 0;
#X connect 2 1 1 1;
#X connect 3 0 4 0;
#X connect 4 0 9 0;
#X connect 5 0 2 0;
#X connect 7 0 8 0;
#X connect 9 0 0 0;
#X connect 9 1 1 2;
#X restore 507 11 pd code;
#X connect 0 0 5 0;
#X connect 5 0 4 0;
#X coords 0 -1 1 1 105 95 1 100 100;
