#N canvas 636 328 450 300 12;
#X obj 89 55 inlet A;
#X obj 263 56 inlet B;
#X obj 89 126 -;
#X obj 89 151 abs;
#X obj 89 176 <= \$1;
#X obj 89 201 outlet;
#X connect 0 0 2 0;
#X connect 1 0 2 1;
#X connect 2 0 3 0;
#X connect 3 0 4 0;
#X connect 4 0 5 0;
