#N canvas 209 168 503 651 10;
#X obj 86 249 testunit;
#X obj 86 200 textfile, f 10;
#X msg 126 133 read runtests.txt \, rewind;
#X obj 67 4 loadbang;
#X msg 44 601 \; pd quit;
#X obj 86 333 select 0 1;
#X obj 111 359 + 1;
#X obj 171 359 + 1;
#X obj 71 492 i;
#X obj 131 492 i;
#X obj 131 561 print regression-test;
#X msg 131 536 \$1 tests passed;
#X msg 71 515 \$1 tests failed;
#X obj 86 359 i 1;
#X obj 146 359 i 1;
#X obj 146 382 t f f;
#X obj 86 382 t f f;
#X msg 30 33 bang;
#X obj 86 225 t a a;
#X obj 345 243 print testing;
#X obj 143 280 t b;
#X msg 86 133 bang;
#X msg 227 257 0;
#X obj 86 167 t b b;
#X obj 67 66 t b b b;
#X obj 67 35 t b b;
#X msg 112 37 1;
#X obj 44 426 t b b;
#X obj 44 449 i;
#X obj 44 575 select 1;
#X obj 243 379 print oops;
#X obj 243 354 list append ???;
#X obj 294 242 t a b a;
#X obj 343 468 i 1;
#X obj 343 491 t f f;
#X obj 373 467 + 1;
#X obj 227 280 t f f f;
#X obj 328 514 i;
#X msg 328 537 \$1 total;
#X obj 71 471 t b b b;
#X obj 86 279 t f b b;
#X connect 0 0 40 0;
#X connect 1 0 18 0;
#X connect 1 1 20 0;
#X connect 2 0 1 0;
#X connect 3 0 25 0;
#X connect 5 0 13 0;
#X connect 5 1 14 0;
#X connect 5 2 31 0;
#X connect 6 0 13 1;
#X connect 7 0 14 1;
#X connect 8 0 12 0;
#X connect 9 0 11 0;
#X connect 11 0 10 0;
#X connect 12 0 10 0;
#X connect 13 0 16 0;
#X connect 14 0 15 0;
#X connect 15 0 9 1;
#X connect 15 1 7 0;
#X connect 16 0 8 1;
#X connect 16 1 6 0;
#X connect 17 0 24 0;
#X connect 18 0 0 0;
#X connect 18 1 32 0;
#X connect 20 0 27 0;
#X connect 21 0 23 0;
#X connect 22 0 36 0;
#X connect 23 0 1 0;
#X connect 23 1 22 0;
#X connect 24 1 21 0;
#X connect 24 2 2 0;
#X connect 25 0 24 0;
#X connect 25 1 26 0;
#X connect 26 0 28 1;
#X connect 27 0 28 0;
#X connect 27 1 39 0;
#X connect 28 0 29 0;
#X connect 29 0 4 0;
#X connect 31 0 30 0;
#X connect 32 0 31 1;
#X connect 32 2 19 0;
#X connect 33 0 34 0;
#X connect 34 0 37 1;
#X connect 34 1 35 0;
#X connect 35 0 33 1;
#X connect 36 0 6 0;
#X connect 36 1 7 0;
#X connect 36 2 35 0;
#X connect 37 0 38 0;
#X connect 38 0 10 0;
#X connect 39 0 8 0;
#X connect 39 1 9 0;
#X connect 39 2 37 0;
#X connect 40 0 5 0;
#X connect 40 1 1 0;
#X connect 40 2 33 0;
