#N canvas 209 168 427 557 10;
#X obj 86 209 testunit;
#X obj 86 130 textfile;
#X msg 116 84 read runtests.txt \, rewind;
#X obj 67 34 loadbang;
#X msg 17 111 \; pd quit;
#X obj 86 110 until;
#X obj 86 233 select 0 1;
#X obj 111 259 + 1;
#X obj 171 259 + 1;
#X obj 71 342 i;
#X obj 131 342 i;
#X obj 131 411 print regression-test;
#X msg 131 386 \$1 tests passed;
#X msg 71 365 \$1 tests failed;
#X obj 71 321 t b b;
#X obj 86 259 i 1;
#X obj 146 259 i 1;
#X obj 137 150 t b b b;
#X obj 146 282 t f f;
#X obj 86 282 t f f;
#X msg 143 30 bang;
#X obj 67 56 t b b b;
#X connect 0 0 6 0;
#X connect 1 0 0 0;
#X connect 1 1 17 0;
#X connect 2 0 1 0;
#X connect 3 0 21 0;
#X connect 5 0 1 0;
#X connect 6 0 15 0;
#X connect 6 1 16 0;
#X connect 7 0 15 1;
#X connect 8 0 16 1;
#X connect 9 0 13 0;
#X connect 10 0 12 0;
#X connect 12 0 11 0;
#X connect 13 0 11 0;
#X connect 14 0 9 0;
#X connect 14 1 10 0;
#X connect 15 0 19 0;
#X connect 16 0 18 0;
#X connect 17 1 14 0;
#X connect 17 2 5 1;
#X connect 18 0 10 1;
#X connect 18 1 8 0;
#X connect 19 0 9 1;
#X connect 19 1 7 0;
#X connect 20 0 21 0;
#X connect 21 0 4 0;
#X connect 21 1 5 0;
#X connect 21 2 2 0;
