#N canvas 534 0 850 668 10;
#X obj 595 205 convhull 0.001;
#X obj 595 176 t a a;
#N canvas 69 11 539 331 writeobject 0;
#X obj 163 270 textfile;
#X obj 163 161 mtx;
#X obj 163 123 until;
#X obj 200 123 f;
#X obj 226 123 + 1;
#X msg 225 102 1;
#X obj 163 81 t a a b;
#X obj 163 102 mtx_size;
#X obj 143 32 inlet;
#X obj 373 44 inlet;
#X msg 199 142 row \$1;
#X obj 163 238 list trim;
#X msg 269 196 add \$1;
#X msg 329 174 symbol v;
#X obj 373 65 t a b;
#X obj 143 54 t b a b;
#X msg 45 230 write test.obj cr;
#X msg 399 108 clear;
#X obj 164 218 list prepend;
#X msg 269 174 symbol f;
#X connect 1 0 18 0;
#X connect 2 0 3 0;
#X connect 3 0 4 0;
#X connect 3 0 10 0;
#X connect 4 0 3 1;
#X connect 5 0 3 1;
#X connect 6 0 7 0;
#X connect 6 1 1 1;
#X connect 6 2 5 0;
#X connect 7 0 2 0;
#X connect 8 0 15 0;
#X connect 9 0 14 0;
#X connect 10 0 1 0;
#X connect 11 0 0 0;
#X connect 12 0 18 1;
#X connect 13 0 12 0;
#X connect 14 0 6 0;
#X connect 14 1 13 0;
#X connect 14 1 17 0;
#X connect 15 0 16 0;
#X connect 15 1 6 0;
#X connect 15 2 19 0;
#X connect 16 0 0 0;
#X connect 17 0 0 0;
#X connect 18 0 11 0;
#X connect 19 0 12 0;
#X restore 116 490 pd writeobject;
#N canvas 0 22 450 300 gemwin 0;
#X obj 132 136 gemwin;
#X obj 67 89 outlet;
#X obj 67 10 inlet;
#X obj 67 41 route create;
#X msg 67 70 set destroy;
#X msg 142 68 set create;
#X msg 132 112 create \, 1 \, lighting 1;
#X msg 298 112 destroy \, reset;
#X msg 256 79 color 0.78 0.8 1;
#X obj 256 57 loadbang;
#X connect 2 0 3 0;
#X connect 3 0 4 0;
#X connect 3 0 6 0;
#X connect 3 1 5 0;
#X connect 3 1 7 0;
#X connect 4 0 1 0;
#X connect 5 0 1 0;
#X connect 6 0 0 0;
#X connect 7 0 0 0;
#X connect 8 0 0 0;
#X connect 9 0 8 0;
#X restore 556 423 pd gemwin;
#X msg 556 404 destroy;
#X obj 668 404 gemhead;
#X obj 668 423 world_light;
#X obj 362 -1 gemhead;
#X obj 393 151 model;
#X floatatom 377 79 5 0 0 0 - - -;
#X floatatom 420 80 5 0 0 0 - - -;
#X floatatom 460 80 5 0 0 0 - - -;
#X msg 17 196 open test.obj;
#X msg 500 97 rescale 0;
#X obj 364 38 color 0.9 0.9 0.9;
#X obj 595 227 extra_point;
#X obj 209 467 mtx_* 1.5;
#X obj 363 18 ortho;
#X obj 488 -3 tgl 15 0 empty empty empty 17 7 0 10 -262144 -1 -1 0
1;
#X obj 485 38 f;
#X obj 540 38 % 360;
#X obj 480 17 metro 50;
#X msg 360 176 smooth 0;
#X obj 595 266 convhull 0.001;
#X obj 595 248 t a a;
#X obj 85 411 mtx;
#X obj 84 446 mtx_slice;
#X msg 123 425 1 1 \$1 end;
#X floatatom 18 250 5 0 0 0 - - -;
#X obj 221 440 mtx;
#X obj -7 284 t b b f b;
#X obj 125 394 mtx_size;
#X obj 101 375 t a a;
#X msg 184 396 set \$1;
#X obj 355 101 rotateXYZ -74 0 0;
#X obj 513 38 + 3;
#X obj 360 128 t b a;
#X obj 113 332 convhull 0.001;
#X obj 159 229 t a a;
#X msg 105 72 4 40;
#X msg 109 92 5 67;
#X msg 103 50 3 26;
#X msg 101 137 read designsN/N\$1_\$2.mtx \, bang;
#X obj 60 135 mtx;
#X obj 183 280 demux;
#X obj 210 213 tgl 15 0 empty empty empty 17 7 0 10 -262144 -1 -1 1
1;
#X obj 249 237 t b f;
#X obj 60 165 t b a b;
#X msg 111 111 9 180;
#X msg 97 1 1.5 6;
#X msg 104 27 2 14;
#X msg 181 43 2.5 12;
#X floatatom 323 280 5 0 0 0 - - -;
#X obj 327 301 t b f;
#X obj 416 257 mtx_rand;
#X msg 427 235 200 3;
#X obj 245 336 mtx_qhull 500;
#X msg 175 77 read designsN/dode.mtx \, bang;
#X msg 221 167 read Rls.mtx \, bang;
#X connect 0 0 15 0;
#X connect 1 0 0 0;
#X connect 1 1 15 1;
#X connect 3 0 4 0;
#X connect 4 0 3 0;
#X connect 5 0 6 0;
#X connect 7 0 17 0;
#X connect 9 0 34 1;
#X connect 10 0 34 2;
#X connect 11 0 34 3;
#X connect 12 0 36 0;
#X connect 13 0 8 0;
#X connect 14 0 34 0;
#X connect 15 0 24 0;
#X connect 16 0 2 1;
#X connect 17 0 14 0;
#X connect 18 0 21 0;
#X connect 19 0 11 0;
#X connect 19 0 35 0;
#X connect 20 0 19 1;
#X connect 21 0 19 0;
#X connect 22 0 8 0;
#X connect 23 0 32 0;
#X connect 24 0 23 0;
#X connect 24 1 29 0;
#X connect 25 0 26 0;
#X connect 26 0 2 0;
#X connect 27 0 26 1;
#X connect 28 0 30 0;
#X connect 29 0 16 0;
#X connect 30 0 12 0;
#X connect 30 1 25 0;
#X connect 30 2 27 0;
#X connect 30 3 29 0;
#X connect 31 0 27 0;
#X connect 31 0 33 0;
#X connect 32 0 25 0;
#X connect 32 1 31 0;
#X connect 33 0 28 0;
#X connect 34 0 8 0;
#X connect 35 0 20 0;
#X connect 36 0 22 0;
#X connect 36 1 8 0;
#X connect 37 0 32 0;
#X connect 38 0 44 0;
#X connect 38 1 29 0;
#X connect 39 0 42 0;
#X connect 40 0 42 0;
#X connect 41 0 42 0;
#X connect 42 0 43 0;
#X connect 43 0 47 0;
#X connect 44 0 37 0;
#X connect 44 1 56 0;
#X connect 45 0 46 0;
#X connect 46 0 43 0;
#X connect 46 1 44 1;
#X connect 47 0 12 0;
#X connect 47 1 38 0;
#X connect 48 0 42 0;
#X connect 49 0 42 0;
#X connect 50 0 42 0;
#X connect 51 0 42 0;
#X connect 52 0 53 0;
#X connect 53 0 43 0;
#X connect 53 1 56 0;
#X connect 54 0 43 0;
#X connect 55 0 54 0;
#X connect 56 0 32 0;
#X connect 57 0 43 0;
#X connect 58 0 43 0;
