#N canvas 0 77 839 423 10;
#X obj 122 68 inlet bang;
#X obj 122 385 outlet 1==OK;
#X text 67 37 test for existence of [mtx_min];
#X msg 122 99 1;
#X obj 122 120 atan;
#X obj 122 266 mtx_* 1e+06;
#X obj 122 287 mtx_int;
#X obj 122 308 mtx_./ 1e+06;
#X obj 122 141 * 2;
#X obj 122 245 mtx_spherical_harmonics 1 SN3D;
#X obj 122 213 t a a;
#X msg 122 181 matrix 2 3 0 \$1 \$1 \$1 \$1 0;
#X msg 323 213 matrix 3 4 1 0 0 1 1 1 0 0 1 0 1 0;
#X obj 122 333 mtx_isequal;
#X connect 0 0 3 0;
#X connect 3 0 4 0;
#X connect 4 0 8 0;
#X connect 5 0 6 0;
#X connect 6 0 7 0;
#X connect 7 0 13 0;
#X connect 8 0 11 0;
#X connect 9 0 5 0;
#X connect 10 0 9 0;
#X connect 10 1 12 0;
#X connect 11 0 10 0;
#X connect 12 0 13 1;
#X connect 13 0 1 0;
