#N canvas 128 104 450 300 10;
#X declare -lib iemmatrix;
#X obj 385 73 matrix;
#X text 255 72 see also help for;
#X obj 57 176 mtx_mean;
#X obj 57 231 print mean_row;
#X obj 57 106 mtx_rand;
#X msg 57 82 4 5;
#X obj 57 127 t a a;
#X obj 87 148 mtx_print org;
#X text 56 11 mean values of a matrix;
#X text 55 259 get the list(!) mean value of each column;
#N canvas 460 154 494 171 META 0;
#X text 12 105 AUTHOR IOhannes m zmoelnig;
#X text 12 85 OUTLET_0 matrix;
#X text 12 125 HELP_PATCH_AUTHORS IOhannes m zmölnig;
#X text 12 25 LICENSE GPL-2+;
#X text 12 65 INLET_0 matrix;
#X text 12 5 KEYWORDS control matrix statistics;
#X text 11 44 DESCRIPTION get mean values of each column of a matrix;
#X obj 16 147 declare -lib iemmatrix;
#X restore 381 16 pd META;
#X connect 2 0 3 0;
#X connect 4 0 6 0;
#X connect 5 0 4 0;
#X connect 6 0 2 0;
#X connect 6 1 7 0;
