#N canvas 27 49 670 558 10;
#X declare -lib iemmatrix;
#X obj 591 524 matrix;
#X text 461 523 see also help for;
#X obj 12 219 t a a;
#X msg 12 154 bang;
#X msg 265 420 mode row;
#X msg 265 394 mode column;
#X msg 352 393 mode col;
#X msg 418 393 mode :;
#X obj 263 446 t a;
#X text 90 15 [mtx_concat];
#X text 47 34 concatenate 2 matrices;
#X obj 12 196 mtx_ones 3 4;
#X obj 12 176 t b b;
#X obj 20 241 mtx_print left;
#X text 471 393 concat columns (default);
#X text 476 419 concat rows;
#X obj 12 279 mtx_concat;
#X obj 12 307 mtx_print col-concat;
#X obj 123 221 t a a;
#X obj 123 198 mtx_zeros 5 4;
#X obj 131 243 mtx_print right;
#X obj 313 220 t a a;
#X msg 313 155 bang;
#X obj 313 177 t b b;
#X obj 321 242 mtx_print left;
#X obj 424 222 t a a;
#X obj 432 244 mtx_print right;
#X obj 313 280 mtx_concat row;
#X obj 313 197 mtx_ones 2 2;
#X obj 424 199 mtx_zeros 2 3;
#X obj 17 409 t a a;
#X msg 17 348 bang;
#X obj 17 370 t b b;
#X obj 25 426 mtx_print left;
#X obj 17 473 mtx_concat;
#X obj 128 409 t a a;
#X obj 136 426 mtx_print right;
#X obj 17 511 mtx_print concat;
#X obj 313 308 mtx_print row-concat;
#X obj 17 390 mtx_ones 2 2;
#X obj 128 390 mtx_zeros 2 2;
#X text 8 60 you can concatenate 2 matrices either row-wise or column-wise \; if you concatenate them in "column"-mode (default) \, the 2 matrices must have the same number of columns and vice versa in "row"-mode., f 68;
#N canvas 460 154 494 171 META 0;
#X text 12 105 AUTHOR IOhannes m zmoelnig;
#X text 12 85 OUTLET_0 matrix;
#X text 12 125 HELP_PATCH_AUTHORS IOhannes m zmölnig;
#X text 12 25 LICENSE GPL-2+;
#X text 12 65 INLET_0 matrix;
#X text 12 5 KEYWORDS control matrix;
#X text 12 45 DESCRIPTION concatenate two matrices into a new matrix;
#X obj 16 147 declare -lib iemmatrix;
#X restore 591 6 pd META;
#X connect 2 0 16 0;
#X connect 2 1 13 0;
#X connect 3 0 12 0;
#X connect 4 0 8 0;
#X connect 5 0 8 0;
#X connect 6 0 8 0;
#X connect 7 0 8 0;
#X connect 8 0 34 0;
#X connect 11 0 2 0;
#X connect 12 0 11 0;
#X connect 12 1 19 0;
#X connect 16 0 17 0;
#X connect 18 0 16 1;
#X connect 18 1 20 0;
#X connect 19 0 18 0;
#X connect 21 0 27 0;
#X connect 21 1 24 0;
#X connect 22 0 23 0;
#X connect 23 0 28 0;
#X connect 23 1 29 0;
#X connect 25 0 27 1;
#X connect 25 1 26 0;
#X connect 27 0 38 0;
#X connect 28 0 21 0;
#X connect 29 0 25 0;
#X connect 30 0 34 0;
#X connect 30 1 33 0;
#X connect 31 0 32 0;
#X connect 32 0 39 0;
#X connect 32 1 40 0;
#X connect 34 0 37 0;
#X connect 35 0 34 1;
#X connect 35 1 36 0;
#X connect 39 0 30 0;
#X connect 40 0 35 0;
