#N canvas 0 169 604 484 10;
#X declare -lib iemmatrix;
#X msg 276 196 open \$1;
#X obj 276 88 openpanel;
#X obj 276 66 bng 15 250 50 0 empty empty empty 17 7 0 10 #fcfcfc #000000 #000000;
#X obj 113 112 bng 15 250 50 0 empty empty empty 17 7 0 10 #fcfcfc #000000 #000000;
#X obj 302 261 print DONE;
#X obj 200 347 mtx_print;
#X msg 114 165 20;
#X obj 243 289 mtx_size;
#X floatatom 244 311 0 0 0 0 - - - 0;
#X floatatom 299 311 0 0 0 0 - - - 0;
#X msg 113 186 100;
#X msg 112 204 100000;
#X msg 115 146 4;
#X msg 287 153 symbol x.wav;
#X msg 303 172 symbol x.mat;
#X floatatom 153 148 5 0 0 0 - - - 0;
#X msg 335 196 close;
#X text 309 64 open audiofile (multichannel);
#X text 75 90 read number of samples;
#X text 137 111 read 1;
#X text 391 370 Franz Zotter 2008;
#X text 356 389 [iemmatrix];
#X text 79 24 reading multichannel data from soundfile;
#X obj 200 239 mtx_sndfileread;
#N canvas 460 154 494 171 META 0;
#X text 12 85 OUTLET_0 matrix;
#X text 12 125 HELP_PATCH_AUTHORS IOhannes m zmölnig;
#X text 12 25 LICENSE GPL-2+;
#X text 12 65 INLET_0 matrix;
#X text 12 105 AUTHOR Franz Zotter;
#X text 12 44 DESCRIPTION read multichannel data from a soundfile into a matrix, f 70;
#X text 12 5 KEYWORDS control matrix;
#X obj 13 150 declare -lib iemmatrix;
#X restore 531 16 pd META;
#X obj 200 262 t a a;
#X connect 0 0 23 0;
#X connect 1 0 0 0;
#X connect 2 0 1 0;
#X connect 3 0 23 0;
#X connect 6 0 23 0;
#X connect 7 0 8 0;
#X connect 7 1 9 0;
#X connect 10 0 23 0;
#X connect 11 0 23 0;
#X connect 12 0 23 0;
#X connect 13 0 0 0;
#X connect 14 0 0 0;
#X connect 15 0 23 0;
#X connect 16 0 23 0;
#X connect 23 0 25 0;
#X connect 23 1 4 0;
#X connect 25 0 5 0;
#X connect 25 1 7 0;
