#N canvas 83 78 622 283 10;
#X declare -lib iemmatrix;
#X obj 545 63 matrix;
#X text 415 62 see also help for;
#X text 194 36 transpose matrices;
#X text 198 15 [mtx_scroll];
#X obj 194 162 t a a;
#X obj 236 163 mtx_print org;
#X obj 194 220 mtx_print scrolled;
#X obj 194 192 mtx_scroll 1;
#X msg 194 116 1 2 3 4 5;
#X text 190 99 shift rows of a matrix;
#X floatatom 301 191 4 0 6 1 shift - - 0;
#X obj 194 138 mtx_diag;
#X text 380 179 (0=no-shift \; 1=1-row-down \; -2=2-rows-up \; ...);
#N canvas 460 154 494 171 META 0;
#X text 12 105 AUTHOR IOhannes m zmoelnig;
#X text 12 85 OUTLET_0 matrix;
#X text 12 125 HELP_PATCH_AUTHORS IOhannes m zmölnig;
#X text 12 25 LICENSE GPL-2+;
#X text 12 65 INLET_0 matrix;
#X text 12 5 KEYWORDS control matrix;
#X text 12 44 DESCRIPTION shift rows of a matrix;
#X obj 16 147 declare -lib iemmatrix;
#X restore 541 16 pd META;
#X obj 545 86 mtx_roll;
#X connect 4 0 7 0;
#X connect 4 1 5 0;
#X connect 7 0 6 0;
#X connect 8 0 11 0;
#X connect 10 0 7 1;
#X connect 11 0 4 0;
