#N canvas 161 60 480 327 10;
#X declare -lib iemmatrix;
#X obj 226 270 matrix;
#X text 96 269 see also help for;
#X msg 136 83 3 5;
#X obj 121 23 mtx_minmax;
#X text 223 24 get minimum/maximum of matrix;
#X obj 136 186 print min;
#X obj 201 186 print max;
#X obj 136 106 mtx_rand;
#X obj 136 130 t a a;
#X obj 176 130 mtx_print;
#X text 133 67 get min/max of a matrix;
#X obj 136 152 mtx_minmax;
#N canvas 460 154 494 191 META 0;
#X text 12 125 AUTHOR IOhannes m zmoelnig;
#X text 12 145 HELP_PATCH_AUTHORS IOhannes m zmölnig;
#X text 12 25 LICENSE GPL-2+;
#X text 12 65 INLET_0 matrix;
#X text 12 44 DESCRIPTION get minimum and maximum value of a matrix;
#X text 12 5 KEYWORDS control matrix statistics;
#X text 12 85 OUTLET_0 float;
#X text 12 105 OUTLET_1 float;
#X obj 16 167 declare -lib iemmatrix;
#X restore 421 26 pd META;
#X obj 280 270 array min;
#X obj 280 293 array max;
#X connect 2 0 7 0;
#X connect 7 0 8 0;
#X connect 8 0 11 0;
#X connect 8 1 9 0;
#X connect 11 0 5 0;
#X connect 11 1 6 0;
