#N canvas 65 0 766 595 10;
#X declare -lib iemmatrix;
#X obj 662 46 matrix;
#X text 532 45 see also help for;
#X obj 17 23 mtx_mul;
#X obj 81 23 mtx_*;
#X obj 662 67 *;
#X text 8 42 matrix arithmetic: multiplication;
#X obj 134 23 mtx_.*;
#X obj 17 256 mtx_mul;
#X obj 90 256 mtx_*;
#X msg 17 104 bang;
#X obj 73 172 mtx_diag 1 2;
#X obj 17 128 t b b;
#X obj 17 172 mtx_+ 3;
#X text 70 257 ==;
#X obj 17 148 mtx_eye 3 2;
#X obj 219 259 mtx_print;
#X obj 219 142 t b f;
#X floatatom 219 124 4 0 0 0 - - - 0;
#X msg 219 165 4 2 1 3;
#X obj 219 185 mtx_diag;
#X obj 219 223 mtx_mul 2;
#X obj 304 223 mtx_* 2;
#X obj 374 223 mtx_.* 2;
#X text 285 223 ==;
#X text 357 224 ==;
#X obj 563 231 mtx_.*;
#X obj 563 266 mtx_print;
#X obj 563 146 mtx_diag 1 2 3;
#X obj 600 172 mtx_ones 3;
#X obj 563 125 t b b;
#X msg 563 106 bang;
#X obj 600 191 mtx_* 2;
#X text 18 313 multiply 2 matrices;
#X text 215 282 multiply a matrix with a scalar;
#X text 476 290 multiply 2 matrices element by element;
#X obj 17 294 mtx_print A*B;
#X obj 73 195 t a a;
#X obj 56 215 mtx_print A;
#X obj 17 215 t a a;
#X obj 112 195 mtx_print B;
#X obj 158 539 mtx_print;
#X obj 158 432 t b f;
#X floatatom 158 414 4 0 0 0 - - - 0;
#X msg 158 455 4 2 1 3;
#X obj 158 475 mtx_diag;
#X obj 403 540 mtx_print;
#X obj 403 443 mtx_diag 1 2 3;
#X obj 434 461 mtx_ones 3;
#X obj 434 480 mtx_* 2;
#X text 114 562 divide a matrix by a scalar;
#X obj 158 503 mtx_./ 2;
#X obj 403 505 mtx_./;
#X text 347 564 divide 2 matrices element by element;
#X obj 403 422 t b b f;
#X floatatom 403 403 4 0 0 0 - - - 0;
#X text 8 382 matrix arithmetic: division;
#X obj 14 364 mtx_./;
#N canvas 460 154 494 171 META 0;
#X text 12 105 AUTHOR IOhannes m zmoelnig;
#X text 12 85 OUTLET_0 matrix;
#X text 12 125 HELP_PATCH_AUTHORS IOhannes m zmölnig;
#X text 12 25 LICENSE GPL-2+;
#X text 12 65 INLET_0 matrix;
#X text 12 5 KEYWORDS control matrix math;
#X text 12 44 DESCRIPTION matrix multiplication;
#X obj 16 147 declare -lib iemmatrix;
#X restore 701 18 pd META;
#X connect 7 0 35 0;
#X connect 9 0 11 0;
#X connect 10 0 36 0;
#X connect 11 0 14 0;
#X connect 11 1 10 0;
#X connect 12 0 38 0;
#X connect 14 0 12 0;
#X connect 16 0 18 0;
#X connect 16 1 20 1;
#X connect 17 0 16 0;
#X connect 18 0 19 0;
#X connect 19 0 20 0;
#X connect 20 0 15 0;
#X connect 25 0 26 0;
#X connect 27 0 25 0;
#X connect 28 0 31 0;
#X connect 29 0 27 0;
#X connect 29 1 28 0;
#X connect 30 0 29 0;
#X connect 31 0 25 1;
#X connect 36 0 7 1;
#X connect 36 1 39 0;
#X connect 38 0 7 0;
#X connect 38 1 37 0;
#X connect 41 0 43 0;
#X connect 41 1 50 1;
#X connect 42 0 41 0;
#X connect 43 0 44 0;
#X connect 44 0 50 0;
#X connect 46 0 51 0;
#X connect 47 0 48 0;
#X connect 48 0 51 1;
#X connect 50 0 40 0;
#X connect 51 0 45 0;
#X connect 53 0 46 0;
#X connect 53 1 47 0;
#X connect 53 2 48 1;
#X connect 54 0 53 0;
