#N canvas 128 118 651 254 10;
#X declare -lib iemmatrix;
#X obj 595 43 matrix;
#X text 465 42 see also help for;
#X obj 595 63 cos;
#X obj 48 164 mtx_cos;
#X obj 48 192 mtx_print cos;
#X obj 48 131 t a a;
#X obj 91 132 mtx_print org;
#X text 136 10 cosine of matrix elements;
#X text 45 42 compute the cosine of each element of a matrix;
#X obj 48 100 mtx 2 2;
#X msg 48 80 0 3.14159 1 90;
#N canvas 460 154 494 171 META 0;
#X text 12 105 AUTHOR IOhannes m zmoelnig;
#X text 12 85 OUTLET_0 matrix;
#X text 12 125 HELP_PATCH_AUTHORS IOhannes m zmölnig;
#X text 12 25 LICENSE GPL-2+;
#X text 12 65 INLET_0 matrix;
#X text 12 5 KEYWORDS control matrix math;
#X text 12 45 DESCRIPTION cosine of matrix elements;
#X obj 16 147 declare -lib iemmatrix;
#X restore 588 12 pd META;
#X connect 3 0 4 0;
#X connect 5 0 3 0;
#X connect 5 1 6 0;
#X connect 9 0 5 0;
#X connect 10 0 9 0;
