#N canvas 50 103 687 471 10;
#X declare -lib iemmatrix;
#X obj 181 100 mtx_eye;
#X obj 64 285 mtx_rand 4 2;
#X msg 64 263 bang;
#X obj 64 307 t a a;
#X obj 105 307 mtx_print org;
#X obj 64 357 t a a;
#X msg 181 79 3 3;
#X obj 181 121 mtx_* 100;
#X obj 48 162 mtx_print dbtorms;
#X obj 105 357 mtx_print db;
#X obj 64 407 mtx_print db;
#X obj 48 100 mtx 2 2;
#X text 290 305 note: dB(pd):=dB(techn)+100;
#X text 307 337 this means: 100dB(pd)==unity gain (==1);
#X text 404 375 0dB(pd)==zero gain (==0);
#X text 391 354 106dB(pd)~=double gain (==2);
#X obj 599 43 matrix;
#X text 485 42 see also help for;
#X text 44 34 convert dB(pd) to a power value for each element of a matrix;
#X obj 48 134 mtx_dbtopow;
#X obj 64 330 mtx_powtodb;
#X obj 64 380 mtx_dbtopow;
#X obj 599 91 dbtopow;
#X obj 599 71 mtx_powtodb;
#X text 188 7 convert dB(pd) to power;
#X msg 48 80 0 100 97 103;
#N canvas 460 154 494 171 META 0;
#X text 12 105 AUTHOR IOhannes m zmoelnig;
#X text 12 85 OUTLET_0 matrix;
#X text 12 125 HELP_PATCH_AUTHORS IOhannes m zmölnig;
#X text 12 25 LICENSE GPL-2+;
#X text 12 65 INLET_0 matrix;
#X text 12 5 KEYWORDS control matrix math;
#X text 12 45 DESCRIPTION calculate power value from dB for each matrix element, f 72;
#X obj 16 147 declare -lib iemmatrix;
#X restore 601 6 pd META;
#X connect 0 0 7 0;
#X connect 1 0 3 0;
#X connect 2 0 1 0;
#X connect 3 0 20 0;
#X connect 3 1 4 0;
#X connect 5 0 21 0;
#X connect 5 1 9 0;
#X connect 6 0 0 0;
#X connect 7 0 19 0;
#X connect 11 0 19 0;
#X connect 19 0 8 0;
#X connect 20 0 5 0;
#X connect 21 0 10 0;
#X connect 25 0 11 0;
