#N canvas 136 41 505 373 10;
#X declare -lib iemmatrix;
#X obj 413 74 matrix;
#X text 283 73 see also help for;
#X obj 89 32 mtx_col;
#X obj 53 259 mtx_print;
#X obj 64 217 mtx_ones 5 3;
#X msg 64 198 bang;
#X obj 53 240 mtx_col 4 3;
#X msg 182 195 0;
#X msg 174 173 2;
#X msg 53 146 -1 2 3 4 5;
#X text 133 242 creation: mtx_col [<col> <col> [<posR>]];
#X obj 413 96 mtx_element;
#X text 19 9 set columns of a matrix;
#X text 55 129 set matrix columns;
#X text 214 170 set column [2];
#X text 213 195 set all columns;
#N canvas 460 154 494 171 META 0;
#X text 12 105 AUTHOR IOhannes m zmoelnig;
#X text 12 85 OUTLET_0 matrix;
#X text 12 125 HELP_PATCH_AUTHORS IOhannes m zmölnig;
#X text 12 25 LICENSE GPL-2+;
#X text 12 65 INLET_0 matrix;
#X text 12 5 KEYWORDS control matrix;
#X text 12 45 DESCRIPTION set columns of a matrix;
#X obj 16 147 declare -lib iemmatrix;
#X restore 441 16 pd META;
#X obj 413 116 mtx_row;
#X connect 4 0 6 0;
#X connect 5 0 4 0;
#X connect 6 0 3 0;
#X connect 7 0 6 1;
#X connect 8 0 6 1;
#X connect 9 0 6 0;
