#N canvas 337 124 687 471 10;
#X declare -lib iemmatrix;
#X text 188 7 convert dB(pd) to rms;
#X obj 181 100 mtx_eye;
#X obj 64 285 mtx_rand 4 2;
#X msg 64 263 bang;
#X obj 64 307 t a a;
#X obj 105 307 mtx_print org;
#X obj 64 357 t a a;
#X msg 181 79 3 3;
#X obj 48 134 mtx_dbtorms;
#X obj 64 380 mtx_dbtorms;
#X obj 599 71 mtx_rmstodb;
#X obj 599 91 dbtorms;
#X obj 181 121 mtx_* 100;
#X obj 48 162 mtx_print dbtorms;
#X obj 64 330 mtx_rmstodb;
#X obj 105 357 mtx_print db;
#X obj 64 407 mtx_print db;
#X obj 48 100 mtx 2 2;
#X text 44 34 convert dB(pd) to a linear value for each element of a matrix;
#X text 290 305 note: dB(pd):=dB(techn)+100;
#X text 307 337 this means: 100dB(pd)==unity gain (==1);
#X text 404 375 0dB(pd)==zero gain (==0);
#X msg 48 80 0 100 97 106;
#X text 391 354 106dB(pd)~=double gain (==2);
#X obj 599 43 matrix;
#X text 465 42 see also help for;
#N canvas 460 154 494 171 META 0;
#X text 12 105 AUTHOR IOhannes m zmoelnig;
#X text 12 85 OUTLET_0 matrix;
#X text 12 125 HELP_PATCH_AUTHORS IOhannes m zmölnig;
#X text 12 25 LICENSE GPL-2+;
#X text 12 65 INLET_0 matrix;
#X text 12 5 KEYWORDS control matrix;
#X text 12 45 DESCRIPTION calculate linear value from dB for each matrix element, f 79;
#X obj 16 147 declare -lib iemmatrix;
#X restore 601 6 pd META;
#X connect 1 0 12 0;
#X connect 2 0 4 0;
#X connect 3 0 2 0;
#X connect 4 0 14 0;
#X connect 4 1 5 0;
#X connect 6 0 9 0;
#X connect 6 1 15 0;
#X connect 7 0 1 0;
#X connect 8 0 13 0;
#X connect 9 0 16 0;
#X connect 12 0 8 0;
#X connect 14 0 6 0;
#X connect 17 0 8 0;
#X connect 22 0 17 0;
