#N canvas 142 124 480 329 10;
#X declare -lib iemmatrix;
#X obj 392 56 matrix;
#X text 262 55 see also help for;
#X obj 357 271 mtx_print;
#X msg 357 157 4 2 1 3;
#X obj 357 177 mtx_diag;
#N canvas 460 154 494 171 META 0;
#X text 12 105 AUTHOR IOhannes m zmoelnig;
#X text 12 85 OUTLET_0 matrix;
#X text 12 125 HELP_PATCH_AUTHORS IOhannes m zmölnig;
#X text 12 25 LICENSE GPL-2+;
#X text 12 65 INLET_0 matrix;
#X text 12 5 KEYWORDS control matrix math;
#X obj 16 147 declare -lib iemmatrix;
#X text 12 44 DESCRIPTION calculate the square root of each element of a matrix, f 75;
#X restore 381 6 pd META;
#X obj 17 23 mtx_sqrt;
#X text 8 42 matrix arithmetic: square root;
#X obj 392 100 sqrt;
#X obj 392 77 mtx_.^;
#X obj 357 238 mtx_sqrt;
#X obj 357 200 mtx_.^ 2;
#X msg 40 150 1 2 4 8;
#X obj 40 173 matrix 2 2;
#X obj 40 216 mtx_sqrt;
#X obj 40 259 mtx_print sqrt;
#X text 34 280 sqrt(matrix-elements);
#X msg 210 180 1 2 4 8;
#X obj 210 203 matrix 2 2;
#X obj 210 249 mtx_print sqrt;
#X obj 210 226 mtx_.^ 0.5;
#X text 173 161 much the same as;
#X text 418 202 square;
#X text 420 239 root;
#X connect 3 0 4 0;
#X connect 4 0 11 0;
#X connect 9 0 8 0;
#X connect 10 0 2 0;
#X connect 11 0 10 0;
#X connect 12 0 13 0;
#X connect 13 0 14 0;
#X connect 14 0 15 0;
#X connect 17 0 18 0;
#X connect 18 0 20 0;
#X connect 20 0 19 0;
