#N canvas 262 127 659 257 10;
#X declare -lib iemmatrix;
#X obj 595 73 matrix;
#X text 465 72 see also help for;
#X obj 48 100 mtx 3 3;
#X obj 48 181 t a a;
#X obj 91 182 mtx_print org;
#N canvas 460 154 494 171 META 0;
#X text 12 105 AUTHOR IOhannes m zmoelnig;
#X text 12 5 KEYWORDS control matrix;
#X text 12 85 OUTLET_0 matrix;
#X text 12 125 HELP_PATCH_AUTHORS IOhannes m zmölnig;
#X text 12 25 LICENSE GPL-2+;
#X text 12 65 INLET_0 message;
#X obj 16 147 declare -lib iemmatrix;
#X text 12 45 DESCRIPTION calculate tangent (tan) of matrix elements;
#X restore 591 16 pd META;
#X obj 595 93 tan;
#X text 136 10 tangent value of matrix elements;
#X msg 48 80 0 45 90 135 180 225 270 315 360;
#X obj 48 204 mtx_tan;
#N canvas 735 461 450 300 PI 0;
#X obj 85 23 loadbang;
#X msg 85 46 1;
#X obj 85 69 atan;
#X obj 85 92 * 4;
#X obj 85 115 outlet;
#X connect 0 0 1 0;
#X connect 1 0 2 0;
#X connect 2 0 3 0;
#X connect 3 0 4 0;
#X restore 129 126 pd PI;
#X obj 48 126 mtx_./ 180;
#X obj 48 151 mtx_.* 3.14159;
#X obj 48 228 mtx_print tan;
#X text 45 42 compute the tangent of each element of a matrix;
#X connect 2 0 11 0;
#X connect 3 0 9 0;
#X connect 3 1 4 0;
#X connect 8 0 2 0;
#X connect 9 0 13 0;
#X connect 10 0 12 1;
#X connect 11 0 12 0;
#X connect 12 0 3 0;
