#N canvas -18 184 715 302 10;
#X declare -lib iemmatrix;
#X obj 595 63 matrix;
#X text 465 62 see also help for;
#X obj 42 139 t a a;
#X obj 84 140 mtx_print org;
#X msg 42 94 bang;
#X text 90 15 [mtx_repmat];
#X text 108 35 repeat a matrix into a meta-matrix;
#X obj 42 257 mtx_print repeated;
#X obj 42 229 mtx_repmat 2 2;
#X obj 42 116 mtx_egg 3 4;
#X msg 209 127 1 2;
#X obj 209 199 t b l;
#X msg 225 151 3 1;
#X text 246 126 repeat incoming matrix 1*vertically and 2*horizontally;
#X text 259 151 repeat incoming matrix 3*vertically and 1*horizontally;
#X msg 261 172 2 2;
#X text 294 174 repeat incoming matrix 2*vertically and 2*horizontally;
#X text 39 77 repeat a matrix;
#N canvas 460 154 494 171 META 0;
#X text 12 105 AUTHOR IOhannes m zmoelnig;
#X text 12 85 OUTLET_0 matrix;
#X text 12 125 HELP_PATCH_AUTHORS IOhannes m zmölnig;
#X text 12 25 LICENSE GPL-2+;
#X text 12 65 INLET_0 matrix;
#X text 12 44 DESCRIPTION repeat a matrix into a meta matrix;
#X text 12 5 KEYWORDS control matrix;
#X obj 16 147 declare -lib iemmatrix;
#X restore 641 16 pd META;
#X connect 2 0 8 0;
#X connect 2 1 3 0;
#X connect 4 0 9 0;
#X connect 8 0 7 0;
#X connect 9 0 2 0;
#X connect 10 0 11 0;
#X connect 11 0 9 0;
#X connect 11 1 8 1;
#X connect 12 0 11 0;
#X connect 15 0 11 0;
