#N canvas 136 41 544 373 10;
#X declare -lib iemmatrix;
#X obj 413 74 matrix;
#X text 283 73 see also help for;
#X obj 413 116 mtx_col;
#X obj 89 32 mtx_row;
#X text 19 9 set rows of a matrix;
#X obj 53 259 mtx_print;
#X obj 64 217 mtx_ones 5 3;
#X msg 64 198 bang;
#X obj 53 240 mtx_row 4 3;
#X msg 182 195 0;
#X text 213 195 set all rows;
#X msg 174 173 2;
#X text 214 170 set row [2];
#X msg 53 146 -1 2 3 4 5;
#X text 133 242 creation: mtx_row [<row> <col> [<posR>]];
#X text 55 129 set matrix rows;
#X obj 413 96 mtx_element;
#N canvas 460 154 494 171 META 0;
#X text 12 105 AUTHOR IOhannes m zmoelnig;
#X text 12 85 OUTLET_0 matrix;
#X text 12 125 HELP_PATCH_AUTHORS IOhannes m zmölnig;
#X text 12 25 LICENSE GPL-2+;
#X text 12 65 INLET_0 matrix;
#X text 12 44 DESCRIPTION set rows of a matrix;
#X text 11 5 KEYWORDS control matrix;
#X obj 16 147 declare -lib iemmatrix;
#X restore 451 28 pd META;
#X connect 6 0 8 0;
#X connect 7 0 6 0;
#X connect 8 0 5 0;
#X connect 9 0 8 1;
#X connect 11 0 8 1;
#X connect 13 0 8 0;
