#N canvas 385 142 508 466 10;
#X obj 122 68 inlet bang;
#X obj 122 385 outlet 1==OK;
#X text 67 37 test for existence of [mtx_rfft];
#X obj 122 161 mtx_rfft;
#X msg 122 102 matrix 1 4 0.25 0.25 0.25 0.25;
#X obj 210 207 mtx_isequal 0;
#X obj 122 132 t a b;
#X msg 185 160 matrix 1 3 1 0 0;
#X obj 122 207 mtx_isequal;
#X obj 122 244 *;
#X connect 0 0 4 0;
#X connect 3 0 8 0;
#X connect 3 1 5 0;
#X connect 4 0 6 0;
#X connect 5 0 9 1;
#X connect 6 0 3 0;
#X connect 6 1 7 0;
#X connect 7 0 8 1;
#X connect 8 0 9 0;
#X connect 9 0 1 0;
