#N canvas 161 60 750 285 10;
#X declare -lib iemmatrix;
#X obj 121 23 mtx_resize;
#X obj 675 244 matrix;
#X text 545 243 see also help for;
#X text 223 24 resize a matrix;
#X obj 136 244 mtx_print;
#X obj 136 106 mtx_ones;
#X msg 136 83 3 5;
#X obj 136 222 mtx_resize;
#X text 133 67 resize a matrix;
#X msg 245 91 3 2;
#X msg 244 119 2 0;
#X msg 241 174 0 0;
#X text 285 92 resize to [3 \, 2];
#X text 285 120 resize to 2 rows \, leave row-length unchanged;
#X text 284 174 don't resize;
#X text 209 222 creation: mtx_resize [<rows> [<cols>]];
#X msg 243 146 0 4;
#X text 285 145 resize to 4 columns \, leave column-length unchanged;
#X msg 242 199 8;
#X text 274 199 resize to [8 \, 8];
#N canvas 460 154 494 171 META 0;
#X text 12 105 AUTHOR IOhannes m zmoelnig;
#X text 12 85 OUTLET_0 matrix;
#X text 12 125 HELP_PATCH_AUTHORS IOhannes m zmölnig;
#X text 12 25 LICENSE GPL-2+;
#X text 12 65 INLET_0 matrix;
#X text 12 5 KEYWORDS control matrix;
#X text 12 44 DESCRIPTION resize a matrix;
#X obj 16 147 declare -lib iemmatrix;
#X restore 691 16 pd META;
#X connect 5 0 7 0;
#X connect 6 0 5 0;
#X connect 7 0 4 0;
#X connect 9 0 7 1;
#X connect 10 0 7 1;
#X connect 11 0 7 1;
#X connect 16 0 7 1;
#X connect 18 0 7 1;
