#N canvas 108 140 615 247 10;
#X declare -lib iemmatrix;
#X text 360 64 updated for;
#X obj 448 64 declare -lib iemmatrix;
#X text 83 25 get the trace of a matrix;
#X obj 84 106 mtx_ones 7;
#X msg 84 83 bang;
#X obj 84 147 mtx_trace;
#X floatatom 84 189 4 0 0 0 - - - 0;
#X text 86 68 get trace of a matrix;
#X text 81 204 trace = sum(diagonal elements);
#X obj 497 90 matrix;
#X text 367 89 see also help for;
#X obj 498 114 mtx_diag;
#N canvas 460 154 494 171 META 0;
#X text 12 105 AUTHOR IOhannes m zmoelnig;
#X text 12 85 OUTLET_0 matrix;
#X text 12 125 HELP_PATCH_AUTHORS IOhannes m zmölnig;
#X text 12 25 LICENSE GPL-2+;
#X text 12 65 INLET_0 matrix;
#X text 12 5 KEYWORDS control matrix math;
#X text 12 44 DESCRIPTION get the trace of a matrix (sum of diagonal elements);
#X restore 551 16 pd META;
#X connect 3 0 5 0;
#X connect 4 0 3 0;
#X connect 5 0 6 0;
