#N canvas 363 101 481 299 10;
#X declare -lib iemmatrix;
#X obj 392 56 matrix;
#X text 262 55 see also help for;
#X obj 46 176 mtx_sub;
#X obj 125 177 mtx_-;
#X obj 123 147 mtx_diag 1 2 3 4 5;
#X obj 46 147 mtx_ones 5;
#X obj 46 124 t b b;
#X obj 46 198 mtx_print;
#X msg 46 105 bang;
#X text 100 178 ==;
#X obj 263 147 mtx_eye 4;
#X obj 263 172 mtx_sub 10;
#X msg 263 120 bang;
#X obj 263 199 mtx_print;
#X floatatom 332 104 4 0 0 0 - - - 0;
#X obj 332 122 t b f;
#X obj 360 172 mtx_- 10;
#X text 339 173 ==;
#X text 38 227 sub 2 matrices;
#X obj 17 23 mtx_sub;
#X obj 81 23 mtx_-;
#X text 8 42 matrix arithmetic: subtraction;
#X obj 393 77 -;
#X text 232 231 subtract an offset from a matrix;
#N canvas 460 154 494 171 META 0;
#X text 12 105 AUTHOR IOhannes m zmoelnig;
#X text 12 85 OUTLET_0 matrix;
#X text 12 125 HELP_PATCH_AUTHORS IOhannes m zmölnig;
#X text 12 25 LICENSE GPL-2+;
#X text 12 65 INLET_0 matrix;
#X text 12 5 KEYWORDS control matrix math;
#X text 12 44 DESCRIPTION matrix arithmetic subtraction;
#X obj 16 147 declare -lib iemmatrix;
#X restore 381 6 pd META;
#X connect 2 0 7 0;
#X connect 4 0 2 1;
#X connect 5 0 2 0;
#X connect 6 0 5 0;
#X connect 6 1 4 0;
#X connect 8 0 6 0;
#X connect 10 0 11 0;
#X connect 11 0 13 0;
#X connect 12 0 10 0;
#X connect 14 0 15 0;
#X connect 15 0 10 0;
#X connect 15 1 11 1;
