#N canvas 128 118 687 471 10;
#X declare -lib iemmatrix;
#X text 188 7 natural logarithm of matrix-elements;
#X text 428 17 updated for;
#X obj 506 17 declare -lib iemmatrix;
#X obj 595 43 matrix;
#X text 465 42 see also help for;
#X obj 181 100 mtx_eye;
#X obj 48 100 mtx 3 3;
#X msg 48 80 0 1 2 3 4 5 6 7 8;
#X obj 64 285 mtx_rand 4 2;
#X msg 64 263 bang;
#X obj 64 307 t a a;
#X obj 105 307 mtx_print org;
#X obj 64 357 t a a;
#X obj 48 134 mtx_log;
#X obj 48 162 mtx_print logarithm;
#X obj 64 330 mtx_log;
#X obj 64 380 mtx_exp;
#X obj 105 357 mtx_print log;
#X obj 64 407 mtx_print exp;
#X msg 181 79 3 3;
#X obj 595 63 mtx_exp;
#X obj 595 83 log;
#N canvas 460 154 494 171 META 0;
#X text 12 105 AUTHOR IOhannes m zmoelnig;
#X text 12 85 OUTLET_0 matrix;
#X text 12 125 HELP_PATCH_AUTHORS IOhannes m zmölnig;
#X text 12 25 LICENSE GPL-2+;
#X text 12 65 INLET_0 matrix;
#X text 12 5 KEYWORDS control matrix math;
#X text 12 44 DESCRIPTION compute the natural logarithm of each element of a matrix, f 73;
#X restore 621 16 pd META;
#X text 46 42 compute the natural logarithm of each element of a matrix;
#X connect 5 0 13 0;
#X connect 6 0 13 0;
#X connect 7 0 6 0;
#X connect 8 0 10 0;
#X connect 9 0 8 0;
#X connect 10 0 15 0;
#X connect 10 1 11 0;
#X connect 12 0 16 0;
#X connect 12 1 17 0;
#X connect 13 0 14 0;
#X connect 15 0 12 0;
#X connect 16 0 18 0;
#X connect 19 0 5 0;
