#N canvas 128 118 680 254 10;
#X declare -lib iemmatrix;
#X text 408 17 updated for;
#X obj 496 17 declare -lib iemmatrix;
#X obj 595 43 matrix;
#X text 465 42 see also help for;
#X obj 48 131 t a a;
#X obj 91 132 mtx_print org;
#X obj 16 23 mtx_not;
#X obj 111 23 mtx_!;
#X text 8 42 matrix logic: inversion;
#X obj 48 164 mtx_!;
#X obj 48 100 mtx 2 2;
#X msg 48 80 0 1 12 0;
#X obj 48 192 mtx_print not;
#N canvas 460 154 494 171 META 0;
#X text 12 105 AUTHOR IOhannes m zmoelnig;
#X text 12 85 OUTLET_0 matrix;
#X text 12 125 HELP_PATCH_AUTHORS IOhannes m zmölnig;
#X text 12 25 LICENSE GPL-2+;
#X text 12 65 INLET_0 matrix;
#X text 12 5 KEYWORDS control matrix logic;
#X text 12 44 DESCRIPTION element-wise inversion of a matrix;
#X restore 591 16 pd META;
#X connect 4 0 9 0;
#X connect 4 1 5 0;
#X connect 9 0 12 0;
#X connect 10 0 4 0;
#X connect 11 0 10 0;
