#N canvas 337 118 649 477 10;
#X declare -lib iemmatrix;
#X text 188 7 convert rms to dB(pd);
#X obj 181 90 mtx_eye;
#X obj 64 258 mtx_rand 4 2;
#X msg 64 233 bang;
#X obj 64 307 t a a;
#X obj 105 307 mtx_print org;
#X obj 64 357 t a a;
#X msg 181 71 3 3;
#X obj 181 110 mtx_* 100;
#X obj 48 162 mtx_print dbtorms;
#X obj 48 100 mtx 2 2;
#X text 290 305 note: dB(pd):=dB(techn)+100;
#X text 307 337 this means: 100dB(pd)==unity gain (==1);
#X text 404 375 0dB(pd)==zero gain (==0);
#X text 391 354 106dB(pd)~=double gain (==2);
#X text 44 34 convert a linear value to dB(pd) to for each element of a matrix;
#X obj 48 134 mtx_rmstodb;
#X obj 64 330 mtx_dbtorms;
#X obj 64 380 mtx_rmstodb;
#X obj 105 357 mtx_print rms;
#X obj 64 407 mtx_print db;
#X msg 48 80 0 1 0.1 2;
#X obj 64 277 mtx_* 100;
#X obj 535 113 matrix;
#X text 405 112 see also help for;
#X obj 539 141 mtx_dbtorms;
#X obj 539 161 rmstodb;
#N canvas 493 302 494 171 META 0;
#X text 12 105 AUTHOR IOhannes m zmoelnig;
#X text 12 85 OUTLET_0 matrix;
#X text 12 125 HELP_PATCH_AUTHORS IOhannes m zmölnig;
#X text 12 25 LICENSE GPL-2+;
#X text 12 65 INLET_0 matrix;
#X text 13 5 KEYWORDS control matrix math;
#X text 12 44 DESCRIPTION convert a linear value into dB for each element of a matrix, f 75;
#X obj 16 147 declare -lib iemmatrix;
#X restore 547 16 pd META;
#X connect 1 0 8 0;
#X connect 2 0 22 0;
#X connect 3 0 2 0;
#X connect 4 0 17 0;
#X connect 4 1 5 0;
#X connect 6 0 18 0;
#X connect 6 1 19 0;
#X connect 7 0 1 0;
#X connect 8 0 16 0;
#X connect 10 0 16 0;
#X connect 16 0 9 0;
#X connect 17 0 6 0;
#X connect 18 0 20 0;
#X connect 21 0 10 0;
#X connect 22 0 4 0;
