#N canvas 333 84 670 511 10;
#X declare -lib iemmatrix;
#X text 458 17 updated for;
#X obj 546 17 declare -lib iemmatrix;
#X obj 595 43 matrix;
#X text 465 42 see also help for;
#X text 89 15 [mtx_slice];
#X text 47 34 slicing parts out of a matrix;
#X text 33 60 you can use this to partition matrices;
#X obj 156 264 mtx_slice;
#X obj 156 127 mtx_ones;
#X obj 156 147 mtx_cumsum :;
#X obj 156 167 t a a;
#X msg 156 107 3 4;
#X obj 204 192 mtx_print left;
#X obj 156 290 mtx_print slice;
#X text 338 241 [list idx1_row idx1_col idx2_row idx2_col(;
#X msg 214 241 list 2 2 end end;
#X msg 193 222 list 2 2 3 4;
#X text 313 263 the keyword 'end' is allowed;
#X text 347 355 see also:;
#X obj 347 374 mtx_fill;
#N canvas 447 371 494 171 META 0;
#X text 12 105 AUTHOR IOhannes m zmoelnig;
#X text 12 85 OUTLET_0 matrix;
#X text 12 125 HELP_PATCH_AUTHORS IOhannes m zmölnig;
#X text 12 25 LICENSE GPL-2+;
#X text 12 65 INLET_0 matrix;
#X text 12 5 KEYWORDS control matrix;
#X text 12 44 DESCRIPTION slice parts out of a matrix;
#X restore 591 66 pd META;
#X connect 7 0 13 0;
#X connect 8 0 9 0;
#X connect 9 0 10 0;
#X connect 10 0 7 0;
#X connect 10 1 12 0;
#X connect 11 0 8 0;
#X connect 15 0 7 1;
#X connect 16 0 7 1;
