#N canvas 128 118 680 254 10;
#X declare -lib iemmatrix;
#X obj 596 195 matrix;
#X text 466 194 see also help for;
#X obj 48 100 mtx 3 3;
#X obj 48 131 t a a;
#X obj 91 132 mtx_print;
#X floatatom 262 178 5 0 0 0 - - - 0;
#X obj 48 186 print sum;
#X text 136 10 Product of columns of matrix;
#X text 45 42 compute the column-wise product of a matrix (result is a list of products), f 75;
#X obj 48 164 mtx_prod;
#X obj 262 151 mtx_prod;
#X text 262 107 can also be used for multiplying up lists;
#X msg 48 80 0 1 -2 -3 -4 5 -6 7 -8;
#N canvas 460 154 494 171 META 0;
#X text 12 105 AUTHOR IOhannes m zmoelnig;
#X text 12 85 OUTLET_0 matrix;
#X text 12 125 HELP_PATCH_AUTHORS IOhannes m zmölnig;
#X text 12 25 LICENSE GPL-2+;
#X text 12 65 INLET_0 matrix;
#X text 12 5 KEYWORDS control matrix math;
#X text 12 44 DESCRIPTION compute the column-wise product of a matrix;
#X obj 16 147 declare -lib iemmatrix;
#X restore 611 16 pd META;
#X msg 262 129 1 2 3;
#X obj 596 220 mtx_sum;
#X connect 2 0 3 0;
#X connect 3 0 9 0;
#X connect 3 1 4 0;
#X connect 9 0 6 0;
#X connect 10 0 5 0;
#X connect 12 0 2 0;
#X connect 14 0 10 0;
