#N canvas 224 247 450 300 10;
#X declare -lib iemmatrix;
#X obj 392 56 matrix;
#X text 272 55 see also help for;
#X obj 123 167 mtx_diag 1 2 3 4 5;
#X obj 46 167 mtx_ones 5;
#X obj 46 144 t b b;
#X obj 46 218 mtx_print;
#X msg 46 125 bang;
#X text 100 198 ==;
#X obj 263 167 mtx_eye 4;
#X msg 263 140 bang;
#X obj 263 219 mtx_print;
#X floatatom 332 124 4 0 0 0 - - - 0;
#X obj 332 142 t b f;
#X text 339 193 ==;
#X obj 17 23 mtx_or;
#X obj 81 23 mtx_||;
#X obj 392 77 ||;
#X obj 46 196 mtx_or;
#X obj 125 197 mtx_||;
#X obj 263 192 mtx_or 0;
#X obj 360 192 mtx_|| 0;
#X text 8 42 matrix logic: logical OR;
#X text 38 247 OR 2 matrices;
#X text 246 251 OR a matrix with a scalar;
#N canvas 460 154 494 171 META 0;
#X text 12 105 AUTHOR IOhannes m zmoelnig;
#X text 12 85 OUTLET_0 matrix;
#X text 12 125 HELP_PATCH_AUTHORS IOhannes m zmölnig;
#X text 12 25 LICENSE GPL-2+;
#X text 12 65 INLET_0 matrix;
#X text 12 5 KEYWORDS control matrix logic;
#X text 12 44 DESCRIPTION matrix logic logical OR;
#X obj 16 147 declare -lib iemmatrix;
#X restore 381 6 pd META;
#X connect 2 0 17 1;
#X connect 3 0 17 0;
#X connect 4 0 3 0;
#X connect 4 1 2 0;
#X connect 6 0 4 0;
#X connect 8 0 19 0;
#X connect 9 0 8 0;
#X connect 11 0 12 0;
#X connect 12 0 8 0;
#X connect 12 1 19 1;
#X connect 17 0 5 0;
#X connect 19 0 10 0;
