#N canvas 128 118 725 254 10;
#X declare -lib iemmatrix;
#X text 136 10 absolute value of matrix elements;
#X obj 595 43 matrix;
#X text 465 42 see also help for;
#X obj 48 100 mtx 3 3;
#X text 45 42 compute the absolute value of each element of a matrix;
#X obj 595 63 abs;
#X obj 48 164 mtx_abs;
#X obj 48 192 mtx_print abs;
#X obj 48 131 t a a;
#X obj 91 132 mtx_print org;
#X msg 48 80 0 1 -2 -3 -4 5 -6 7 8;
#N canvas 460 154 494 171 META 0;
#X text 12 105 AUTHOR IOhannes m zmoelnig;
#X text 12 5 KEYWORDS control matrix;
#X text 12 85 OUTLET_0 matrix;
#X text 12 125 HELP_PATCH_AUTHORS IOhannes m zmölnig;
#X text 12 25 LICENSE GPL-2+;
#X text 12 45 DESCRIPTION calculate absolute values of matrix elements;
#X text 12 65 INLET_0 message;
#X obj 16 147 declare -lib iemmatrix;
#X restore 601 206 pd META;
#X connect 3 0 8 0;
#X connect 6 0 7 0;
#X connect 8 0 6 0;
#X connect 8 1 9 0;
#X connect 10 0 3 0;
