#N canvas 66 122 731 401 10;
#X text 458 17 updated for;
#X obj 546 17 iemmatrix 0.2;
#X text 465 42 see also help for;
#X text 26 12 mtx_gauss:: gauss elimination algorithm;
#X text 71 62 apply row- & column-transformation to a matrix to shape it into an upper-triangle matrix;
#X obj 595 43 matrix;
#X obj 595 63 abs;
#X msg 174 146 bang;
#X obj 174 190 t a a;
#X msg 87 144 bang;
#X obj 87 165 mtx_rand 5;
#X obj 174 167 mtx_eye 5;
#X obj 264 167 mtx_egg 5;
#X obj 204 235 mtx_print original;
#X msg 264 144 bang;
#X obj 174 270 mtx_gauss;
#X obj 174 327 mtx_print gauss;
#N canvas 460 154 494 171 META 0;
#X text 12 105 AUTHOR IOhannes m zmoelnig;
#X text 12 85 OUTLET_0 matrix;
#X text 12 125 HELP_PATCH_AUTHORS IOhannes m zmölnig;
#X text 12 25 LICENSE GPL-2+;
#X text 12 65 INLET_0 matrix;
#X text 12 45 DESCRIPTION matrix gauss eleminitation algorithm;
#X text 12 4 KEYWORDS control matrix math;
#X restore 651 16 pd META;
#X connect 7 0 11 0;
#X connect 8 0 15 0;
#X connect 8 1 13 0;
#X connect 9 0 10 0;
#X connect 10 0 8 0;
#X connect 11 0 8 0;
#X connect 12 0 8 0;
#X connect 14 0 12 0;
#X connect 15 0 16 0;
