#N canvas 423 17 450 300 12;
#X declare -lib iemmatrix;
#X obj 122 138 mtx_print;
#X text 43 29 packing signal vectors (usually 64 samples);
#X text 42 52 of multiple inputs into a matrix;
#X text 214 268 [iemmatrix];
#X text 238 248 Franz Zotter \, 2008;
#X obj 77 162 mtx_unpack~ 3;
#X obj 47 115 mtx_rand;
#X obj 47 138 t b a a;
#X obj 292 87 block~ 8;
#X msg 47 93 3 8;
#X obj 5 162 t b b b;
#X obj 192 220 print~ C;
#X obj 133 244 print~ B;
#X obj 77 267 print~ A;
#X obj 19 96 bng 15 250 50 0 empty empty empty 17 7 0 10 #fcfcfc #000000 #000000;
#X obj 126 115 mtx_ones;
#X msg 126 93 3 8;
#N canvas 460 154 494 183 META 0;
#X text 12 125 HELP_PATCH_AUTHORS IOhannes m zmölnig;
#X text 12 25 LICENSE GPL-2+;
#X text 12 106 AUTHOR Franz Zotter;
#X text 11 43 DESCRIPTION unpack a matrix into signal vectors;
#X text 12 85 OUTLET_n signal;
#X text 12 65 INLET_0 matrix;
#X text 12 5 KEYWORDS signal matrix;
#X obj 13 150 declare -lib iemmatrix;
#X restore 381 6 pd META;
#X obj 310 179 tgl 20 0 empty empty empty 0 -10 0 12 #fcfcfc #000000 #000000 0 1;
#X msg 310 204 \; pd dsp \$1;
#X connect 5 0 13 0;
#X connect 5 1 12 0;
#X connect 5 2 11 0;
#X connect 6 0 7 0;
#X connect 7 0 10 0;
#X connect 7 1 5 0;
#X connect 7 2 0 0;
#X connect 9 0 6 0;
#X connect 10 0 13 0;
#X connect 10 1 12 0;
#X connect 10 2 11 0;
#X connect 14 0 7 0;
#X connect 15 0 7 0;
#X connect 16 0 15 0;
#X connect 18 0 19 0;
