#N canvas 128 118 680 254 10;
#X declare -lib iemmatrix;
#X text 458 17 updated for;
#X obj 546 17 declare -lib iemmatrix;
#X obj 595 43 matrix;
#X text 465 42 see also help for;
#X text 136 10 print a matrix to the console;
#X obj 595 63 print;
#X msg 48 80 bang;
#X obj 48 100 mtx_ones 5;
#X obj 48 141 t a a a;
#X obj 92 164 mtx_print;
#X obj 48 228 print oops;
#X obj 70 194 mtx_print label;
#X text 211 116 [mtx_print] will print the matrix in a formatted way;
#X text 216 143 you can give labels \, just like with [print];
#N canvas 460 154 494 171 META 0;
#X text 12 105 AUTHOR IOhannes m zmoelnig;
#X text 12 125 HELP_PATCH_AUTHORS IOhannes m zmölnig;
#X text 12 25 LICENSE GPL-2+;
#X text 12 65 INLET_0 matrix;
#X text 12 44 DESCRIPTION print a matrix to the console;
#X text 12 5 KEYWORDS control matrix;
#X restore 631 16 pd META;
#X connect 6 0 7 0;
#X connect 7 0 8 0;
#X connect 8 0 10 0;
#X connect 8 1 11 0;
#X connect 8 2 9 0;
