#N canvas 61 0 361 290 10;
#X declare -lib iemmatrix;
#X obj 164 245 matrix;
#X text 34 244 see also help for;
#X obj 103 161 mtx_zeros 5;
#X obj 103 187 mtx_print;
#X msg 103 90 bang;
#X msg 133 134 3 5;
#X msg 119 110 10;
#X text 129 20 [mtx_zeros];
#X text 30 49 create a matrix with all elements := 0;
#X text 74 208 all matrix elements=0;
#N canvas 460 154 494 171 META 0;
#X text 12 105 AUTHOR IOhannes m zmoelnig;
#X text 12 85 OUTLET_0 matrix;
#X text 12 125 HELP_PATCH_AUTHORS IOhannes m zmölnig;
#X text 12 25 LICENSE GPL-2+;
#X text 12 65 INLET_0 matrix;
#X text 12 44 DESCRIPTION create a matrix with all elements := 0;
#X text 12 5 KEYWORDS control matrix;
#X obj 16 147 declare -lib iemmatrix;
#X restore 287 9 pd META;
#X obj 164 268 mtx_ones;
#X connect 2 0 3 0;
#X connect 4 0 2 0;
#X connect 5 0 2 0;
#X connect 6 0 2 0;
