#N struct mtx_vis-plot float x float y array mtx_vis-array mtx_vis-element 1;
#N struct mtx_vis-element float x float y float c float dx float dy;
#N canvas 819 236 698 569 10;
#X declare -lib iemmatrix;
#X obj 96 225 *~ 1;
#X obj 521 143 block~ 8192;
#X obj 224 179 hsl 128 15 0 1.5 0 0 empty empty empty -2 -8 0 10 #fcfcfc #000000 #000000 0 1;
#X obj 248 224 sin;
#X obj 209 223 cos;
#X obj 180 45 hsl 100 15 -10 10 0 0 empty empty empty -2 -8 0 10 #fcfcfc #000000 #000000 0 1;
#X obj 177 85 + 10;
#X floatatom 187 113 5 0 0 0 - - - 0;
#X obj 177 64 i;
#X obj 64 396 mtx_print;
#X obj 95 63 *~ 2;
#X obj 95 39 noise~;
#N canvas 430 320 450 472 computegains 0;
#X obj 144 65 bng 15 250 50 0 empty empty empty 17 7 0 10 #fcfcfc #000000 #000000;
#X obj 144 396 mtx_print;
#X obj 144 342 mtx_rmstodb;
#X obj 144 367 mtx_- 100;
#X obj 144 93 mtx_logspace 1 0.17 10;
#X obj 204 167 mtx_reverse;
#X obj 177 190 mtx_+;
#X obj 144 125 t a a a;
#X obj 144 308 mtx_./;
#X obj 177 213 t a a, f 7;
#X msg 216 243 1 \$3;
#X obj 216 265 /;
#X obj 177 286 mtx_* 1;
#X connect 0 0 4 0;
#X connect 2 0 3 0;
#X connect 3 0 1 0;
#X connect 4 0 7 0;
#X connect 5 0 6 1;
#X connect 6 0 9 0;
#X connect 7 0 8 0;
#X connect 7 1 6 0;
#X connect 7 2 5 0;
#X connect 8 0 2 0;
#X connect 9 0 12 0;
#X connect 9 1 10 0;
#X connect 10 0 11 0;
#X connect 11 0 12 1;
#X connect 12 0 8 1;
#X restore 489 325 pd computegains;
#X obj 97 275 mtx_ei~ 23 0.909091 0.888184 0.863193 0.833662 0.79924 0.759747 0.715253 0.666139 0.613137 0.557312 0.5 0.442688 0.386863 0.333861 0.284747 0.240253 0.20076 0.166338 0.136807 0.111816 0.0909091;
#X obj 155 224 *~ 0.5;
#X obj 520 76 tgl 18 0 empty empty empty 0 -9 0 10 #fcfcfc #000000 #000000 0 1;
#X msg 520 99 \; pd dsp 1;
#X obj 221 198 t f f;
#X obj 169 368 mtx_plot;
#X obj 97 337 t a a;
#X obj 64 338 bng 18 250 50 0 empty empty empty 0 -9 0 10 #fcfcfc #000000 #000000;
#X obj 64 373 matrix;
#N canvas 735 459 450 300 10samples 0;
#X obj 54 126 inlet~;
#N canvas 735 459 450 300 delwrite 0;
#X obj 37 37 inlet~;
#X obj 37 112 outlet~;
#X obj 37 75 delwrite~ \$0.10 100;
#X connect 0 0 2 0;
#X restore 54 151 pd delwrite;
#N canvas 735 459 450 300 delread 0;
#X obj 37 37 inlet~;
#X obj 37 87 outlet~;
#X obj 187 36 inlet;
#X obj 37 62 delread~ \$0.10 0;
#X connect 2 0 3 0;
#X connect 3 0 1 0;
#X restore 54 176 pd delread;
#X obj 54 201 outlet~;
#X obj 269 52 r pd-dsp-started;
#X obj 269 77 samplerate~;
#X obj 393 52 loadbang;
#X msg 269 102 1000 \$1;
#X obj 269 127 /;
#X obj 269 152 * 10;
#X connect 0 0 1 0;
#X connect 1 0 2 0;
#X connect 2 0 3 0;
#X connect 4 0 5 0;
#X connect 5 0 7 0;
#X connect 6 0 5 0;
#X connect 7 0 8 0;
#X connect 8 0 9 0;
#X connect 9 0 2 1;
#X restore 156 153 pd 10samples delay;
#N canvas 405 518 450 300 sampledelay 0;
#X obj 54 126 inlet~;
#N canvas 735 459 450 300 delwrite 0;
#X obj 37 37 inlet~;
#X obj 37 112 outlet~;
#X obj 37 75 delwrite~ \$0.A 100;
#X connect 0 0 2 0;
#X restore 54 151 pd delwrite;
#N canvas 735 459 450 300 delread 0;
#X obj 37 37 inlet~;
#X obj 37 62 delread~ \$0.A 0;
#X obj 37 87 outlet~;
#X obj 187 36 inlet;
#X connect 1 0 2 0;
#X connect 3 0 1 0;
#X restore 54 176 pd delread;
#X obj 54 201 outlet~;
#X obj 269 52 r pd-dsp-started;
#X obj 269 77 samplerate~;
#X obj 393 52 loadbang;
#X msg 269 102 1000 \$1;
#X obj 269 127 /;
#X obj 212 30 inlet;
#X obj 212 53 t b f;
#X obj 269 152 * 0;
#X connect 0 0 1 0;
#X connect 1 0 2 0;
#X connect 2 0 3 0;
#X connect 4 0 5 0;
#X connect 5 0 7 0;
#X connect 6 0 5 0;
#X connect 7 0 8 0;
#X connect 8 0 11 0;
#X connect 9 0 10 0;
#X connect 10 0 5 0;
#X connect 10 1 11 1;
#X connect 11 0 2 1;
#X restore 96 178 pd sampledelay;
#N canvas 468 154 486 187 META 0;
#X text 12 25 LICENSE GPL-2+;
#X text 12 116 AUTHOR Franz Zotter;
#X text 11 4 KEYWORDS signal matrix;
#X obj 13 160 declare -lib iemmatrix;
#X text 11 43 DESCRIPTION binaural excitation inhibition pattern (ITD \, ILD), f 63;
#X text 12 65 INLET_0 signal;
#X text 12 82 INLET_1 signal;
#X text 12 97 OUTLET_0 matrix;
#X text 12 135 HELP_PATCH_AUTHORS Franz Zotter;
#X restore 591 36 pd META;
#X connect 0 0 13 0;
#X connect 2 0 17 0;
#X connect 3 0 14 1;
#X connect 4 0 0 1;
#X connect 5 0 8 0;
#X connect 6 0 7 0;
#X connect 6 0 23 1;
#X connect 8 0 6 0;
#X connect 10 0 22 0;
#X connect 10 0 23 0;
#X connect 11 0 10 0;
#X connect 13 0 19 0;
#X connect 14 0 13 1;
#X connect 15 0 16 0;
#X connect 17 0 4 0;
#X connect 17 1 3 0;
#X connect 19 0 21 1;
#X connect 19 1 18 0;
#X connect 20 0 21 0;
#X connect 21 0 9 0;
#X connect 22 0 14 0;
#X connect 23 0 0 0;
