#N canvas 79 113 670 283 10;
#X declare -lib iemmatrix;
#X text 458 17 updated for;
#X obj 546 17 declare -lib iemmatrix;
#X obj 595 43 matrix;
#X text 465 42 see also help for;
#X text 194 36 transpose matrices;
#X text 198 15 [mtx_roll];
#X obj 194 162 t a a;
#X obj 236 163 mtx_print org;
#X obj 194 220 mtx_print rolled;
#X msg 194 120 1 2 3 4 5;
#X obj 194 142 mtx_diag;
#X text 190 103 shift columns of a matrix;
#X floatatom 289 196 4 0 5 1 shift - - 0;
#X text 374 182 (0=no-shift \; 1=1-column-right \; -2=2-columns-left \; ...);
#X obj 194 192 mtx_roll 1;
#N canvas 460 154 494 171 META 0;
#X text 12 105 AUTHOR IOhannes m zmoelnig;
#X text 12 85 OUTLET_0 matrix;
#X text 12 125 HELP_PATCH_AUTHORS IOhannes m zmölnig;
#X text 12 25 LICENSE GPL-2+;
#X text 12 65 INLET_0 matrix;
#X text 12 5 KEYWORDS control matrix;
#X text 12 44 DESCRIPTION shift columns of a matrix;
#X restore 591 66 pd META;
#X connect 6 0 14 0;
#X connect 6 1 7 0;
#X connect 9 0 10 0;
#X connect 10 0 6 0;
#X connect 12 0 14 1;
#X connect 14 0 8 0;
