#N canvas 15 52 710 371 10;
#X obj 82 143 mtx_eig;
#X obj 82 116 mtx_rand;
#X obj 82 196 print l_re;
#X obj 128 174 print l_im;
#X msg 82 88 3;
#X obj 221 111 mtx_rand;
#X msg 221 83 3;
#X obj 230 169 mtx_eig v;
#X obj 230 242 print l_re;
#X obj 250 221 print l_im;
#X obj 314 243 mtx_print Q_re;
#X obj 335 221 mtx_print Q_im;
#X obj 230 148 t a a;
#X obj 375 173 mtx_print A;
#X msg 350 106 matrix 2 2 1 1 -1 2;
#X text 61 17 [mtx_eig] computes (complex valued) eigenvalues \, and if desired eigenvectors of a matrix.;
#X text 425 71 requires GSL;
#X text 212 326 Franz Zotter \, 2009;
#X text 98 288 Attention: eigenvectors seem to be wrong. Don't know why!;
#N canvas 460 154 494 171 META 0;
#X text 12 85 OUTLET_0 matrix;
#X text 12 125 HELP_PATCH_AUTHORS IOhannes m zmölnig;
#X text 12 25 LICENSE GPL-2+;
#X text 12 65 INLET_0 matrix;
#X text 12 5 KEYWORDS control matrix math;
#X text 12 105 AUTHOR Franz Zotter;
#X text 12 45 DESCRIPTION compute eigenvalues and eigenvectors of a matrix;
#X restore 581 76 pd META;
#X connect 0 0 2 0;
#X connect 0 1 3 0;
#X connect 1 0 0 0;
#X connect 4 0 1 0;
#X connect 5 0 12 0;
#X connect 6 0 5 0;
#X connect 7 0 8 0;
#X connect 7 1 9 0;
#X connect 7 2 10 0;
#X connect 7 3 11 0;
#X connect 12 0 7 0;
#X connect 12 1 13 0;
#X connect 14 0 12 0;
