#N canvas 385 142 508 466 10;
#X obj 122 68 inlet bang;
#X obj 122 415 outlet 1==OK;
#X obj 122 191 mtx_rmstodb;
#X text 67 37 test for existence of [mtx_rmstodb];
#X obj 122 89 t b;
#X obj 122 135 t l l;
#X obj 184 330 *;
#X obj 122 330 *;
#X obj 122 356 *;
#X obj 266 239 rmstodb;
#X obj 297 239 rmstodb;
#X obj 328 238 rmstodb;
#X obj 359 238 rmstodb;
#X msg 122 170 matrix 2 3 \$1 \$2 \$3 \$4 \$5 \$6;
#X obj 254 330 *;
#X obj 122 238 unpack 0 0 0 0 0 0;
#X msg 122 213 \$3 \$4 \$5 \$6 \$7 \$8;
#X obj 388 238 rmstodb;
#X obj 419 238 rmstodb;
#X obj 266 218 unpack 0 0 0 0 0 0;
#X obj 122 377 *;
#X msg 122 110 3 -1 10.5 0.05 0 12;
#X obj 122 277 epseq 1e-07;
#X obj 153 307 epseq 1e-07;
#X obj 184 277 epseq 1e-07;
#X obj 215 307 epseq 1e-07;
#X obj 254 277 epseq 1e-07;
#X obj 285 307 epseq 1e-07;
#X connect 0 0 4 0;
#X connect 2 0 16 0;
#X connect 4 0 21 0;
#X connect 5 0 13 0;
#X connect 5 1 19 0;
#X connect 6 0 8 1;
#X connect 7 0 8 0;
#X connect 8 0 20 0;
#X connect 9 0 22 1;
#X connect 10 0 23 1;
#X connect 11 0 24 1;
#X connect 12 0 25 1;
#X connect 13 0 2 0;
#X connect 14 0 20 1;
#X connect 15 0 22 0;
#X connect 15 1 23 0;
#X connect 15 2 24 0;
#X connect 15 3 25 0;
#X connect 15 4 26 0;
#X connect 15 5 27 0;
#X connect 16 0 15 0;
#X connect 17 0 26 1;
#X connect 18 0 27 1;
#X connect 19 0 9 0;
#X connect 19 1 10 0;
#X connect 19 2 11 0;
#X connect 19 3 12 0;
#X connect 19 4 17 0;
#X connect 19 5 18 0;
#X connect 20 0 1 0;
#X connect 21 0 5 0;
#X connect 22 0 7 0;
#X connect 23 0 7 1;
#X connect 24 0 6 0;
#X connect 25 0 6 1;
#X connect 26 0 14 0;
#X connect 27 0 14 1;
