#N canvas 145 640 1145 515 12;
#X obj 661 111 soundfiler;
#X obj 741 111 table sig1;
#X obj 742 134 table sig2;
#X msg 670 55 read -resize whatstrumpsregion_01.wav sig1;
#X msg 661 83 read -resize whatstrumpsregion_02.wav sig2;
#X obj 661 26 loadbang;
#X obj 132 288 tabplay~ sig1;
#X obj 232 288 tabplay~ sig2;
#X msg 435 258 set 4096 1 1;
#X msg 434 280 set 1024 1 1;
#X obj 71 423 dac~;
#X obj 435 103 mtx_rand;
#X obj 435 156 mtx_.*;
#X obj 505 103 mtx_dbtorms;
#X obj 505 76 mtx_linspace;
#X obj 505 127 mtx_repmat 2 1;
#X obj 132 243 bng 19 250 50 0 empty empty empty 0 -10 0 12 #fcfcfc #000000 #000000;
#X obj 435 234 mtx_* 0.05;
#X obj 320 337 bng 19 250 50 0 empty empty empty 0 -10 0 12 #fcfcfc #000000 #000000;
#X obj 320 361 delay;
#X obj 435 206 mtx_scroll 3;
#X obj 435 127 mtx;
#X msg 437 75 2 \$1;
#X msg 505 51 100 0 \$1;
#X msg 298 97 10000;
#X msg 313 119 40000;
#X msg 434 303 set 256 1 1;
#X msg 334 142 160000;
#X obj 320 385 spigot;
#X obj 371 360 tgl 19 0 empty empty empty 0 -10 0 12 #fcfcfc #000000 #000000 0 1;
#N canvas 28 260 1283 725 subpatch_mtx_convolver~ 0;
#X obj 596 216 block~ 4096 1 1;
#X obj 306 230 inlet~;
#X obj 375 230 inlet~;
#X obj 211 469 outlet~;
#X obj 332 470 outlet~;
#X obj 168 119 inlet;
#X obj 596 182 inlet;
#X obj 253 316 mtx_convolver~ 2 2;
#X connect 1 0 7 1;
#X connect 2 0 7 2;
#X connect 5 0 7 0;
#X connect 6 0 0 0;
#X connect 7 0 3 0;
#X connect 7 1 4 0;
#X restore 72 324 pd subpatch_mtx_convolver~;
#X obj 435 182 mtx_resize 4 130000;
#X msg 367 164 130000;
#X obj 577 204 /;
#X obj 577 157 sqrt;
#X msg 577 180 1 \$1;
#X obj 71 374 multiline~ 1 1 10;
#X msg 285 73 4000;
#X msg 273 50 1000;
#X msg 259 29 400;
#X obj 471 385 dsp;
#X floatatom 471 409 5 0 0 0 - - - 0;
#X floatatom 516 409 5 0 0 0 - - - 0;
#X obj 437 21 t f f f;
#X text 397 361 loop;
#X text 57 30 random reverb tail length;
#X text 535 258 block size;
#X connect 3 0 0 0;
#X connect 4 0 0 0;
#X connect 5 0 3 0;
#X connect 5 0 4 0;
#X connect 6 0 30 1;
#X connect 7 0 30 2;
#X connect 7 1 18 0;
#X connect 8 0 30 3;
#X connect 9 0 30 3;
#X connect 11 0 21 0;
#X connect 12 0 31 0;
#X connect 13 0 15 0;
#X connect 14 0 13 0;
#X connect 15 0 12 1;
#X connect 16 0 6 0;
#X connect 16 0 7 0;
#X connect 17 0 30 0;
#X connect 18 0 19 0;
#X connect 19 0 28 0;
#X connect 20 0 17 0;
#X connect 21 0 12 0;
#X connect 22 0 11 0;
#X connect 23 0 14 0;
#X connect 24 0 43 0;
#X connect 25 0 43 0;
#X connect 26 0 30 3;
#X connect 27 0 43 0;
#X connect 28 0 16 0;
#X connect 29 0 28 1;
#X connect 30 0 36 0;
#X connect 30 1 36 1;
#X connect 31 0 20 0;
#X connect 32 0 43 0;
#X connect 33 0 17 1;
#X connect 34 0 35 0;
#X connect 35 0 33 0;
#X connect 36 0 10 0;
#X connect 36 1 10 1;
#X connect 37 0 43 0;
#X connect 38 0 43 0;
#X connect 39 0 43 0;
#X connect 40 0 41 0;
#X connect 40 1 42 0;
#X connect 43 0 22 0;
#X connect 43 1 23 0;
#X connect 43 2 34 0;
