#N canvas 736 240 1145 461 12;
#X obj 162 33 sig~ 0.7;
#X obj 94 33 sig~ 0.3;
#X obj 95 218 snapshot~;
#X obj 157 121 loadbang;
#X msg 157 145 1;
#X obj 157 192 metro 100;
#X floatatom 95 242 5 0 0 0 - - - 0;
#X obj 157 169 tgl 19 0 empty empty empty 0 -10 0 12 #fcfcfc #000000 #000000 0 1;
#X msg 869 174 \; pd dsp \$1;
#X msg 899 246 matrix 6 2 1 2 3 4 5 6 7 8 9 10 11 12;
#X obj 899 270 mtx_print;
#X msg 321 66 matrix 6 2 1 2 3 4 5 6 7 8 9 10 11 12;
#X msg 318 95 matrix 6;
#X msg 405 96 matrix 3 2 1 2 3 4 5 6;
#X msg 421 123 matrix 2 3 1 2;
#X text 614 69 <- values;
#X obj 439 374 mtx;
#X msg 460 215 zeros 6 10 \, element 1 2 1 \, element 2 1 -1 \, element 3 4 0.7 \, element 4 7 -0.3 \, element 5 10 0.2 \, element 6 8 1 \, bang;
#X obj 485 399 mtx_print;
#X text 617 246 <- 1...6 ist linearer index;
#X text 630 268 für MIMO Positionen;
#X text 634 316 1;
#X text 668 317 2;
#X text 704 318 3;
#X text 630 369 4;
#X text 667 371 5;
#X text 701 372 6;
#X text 627 299 "1.1 \, 1.2 \, 1.3" mimo-Matrixeintrag;
#X text 625 352 "2.1 \, 2.2 \, 2.3" mimo-Matrixeintrag;
#X text 741 320 lin. idx.;
#X text 742 373 lin. idx.;
#X text 635 407 und 10: anzahl zeitsamples;
#X obj 299 21 block~ 1024 1 1;
#N canvas 130 130 450 300 subpatch_mit_pack~ 0;
#X obj 164 110 noise~;
#X obj 164 134 pack~;
#X obj 131 172 list;
#X obj 131 144 bng 19 250 50 0 empty empty empty 0 -10 0 12 #fcfcfc #000000 #000000;
#X obj 131 196 print;
#X connect 0 0 1 0;
#X connect 1 0 2 1;
#X connect 2 0 4 0;
#X connect 3 0 2 0;
#X restore 52 306 pd subpatch_mit_pack~;
#X obj 95 373 mtx_*~ 5 2;
#X text 184 377 M * in = out;
#X text 184 401 [nxm] * [mx1] = [nx1];
#X obj 615 111 osc~ 300;
#X obj 677 112 osc~ 400;
#X floatatom 229 276 5 0 0 0 - - - 0;
#X floatatom 286 276 5 0 0 0 - - - 0;
#X floatatom 329 278 5 0 0 0 - - - 0;
#X obj 332 251 avg~;
#X obj 286 252 avg~;
#X obj 229 252 avg~;
#X obj 741 112 osc~ 300;
#X obj 808 112 osc~ 400;
#X obj 244 202 mtx_convolver~ 2 3;
#X connect 2 0 6 0;
#X connect 3 0 4 0;
#X connect 4 0 7 0;
#X connect 5 0 2 0;
#X connect 7 0 5 0;
#X connect 9 0 10 0;
#X connect 11 0 47 0;
#X connect 12 0 47 0;
#X connect 13 0 47 0;
#X connect 14 0 47 0;
#X connect 16 0 18 0;
#X connect 17 0 16 0;
#X connect 37 0 47 1;
#X connect 38 0 47 2;
#X connect 42 0 41 0;
#X connect 43 0 40 0;
#X connect 44 0 39 0;
#X connect 47 0 44 0;
#X connect 47 1 43 0;
#X connect 47 2 42 0;
