#N canvas 265 463 1145 461 12;
#X obj 162 33 sig~ 0.7;
#X obj 94 33 sig~ 0.3;
#X obj 95 218 snapshot~;
#X obj 157 121 loadbang;
#X msg 157 145 1;
#X obj 157 192 metro 100;
#X floatatom 95 242 5 0 0 0 - - - 0;
#X obj 157 169 tgl 19 0 empty empty empty 0 -10 0 12 #fcfcfc #000000 #000000 0 1;
#X obj 299 21 block~ 1024 1 1;
#N canvas 130 130 450 300 subpatch_mit_pack~ 0;
#X obj 164 110 noise~;
#X obj 164 134 pack~;
#X obj 131 172 list;
#X obj 131 144 bng 19 250 50 0 empty empty empty 0 -10 0 12 #fcfcfc #000000 #000000;
#X obj 131 196 print;
#X connect 0 0 1 0;
#X connect 1 0 2 1;
#X connect 2 0 4 0;
#X connect 3 0 2 0;
#X restore 52 306 pd subpatch_mit_pack~;
#X obj 95 373 mtx_*~ 5 2;
#X text 184 377 M * in = out;
#X text 184 401 [nxm] * [mx1] = [nx1];
#X obj 625 124 osc~ 300;
#X obj 690 124 osc~ 400;
#X floatatom 391 347 5 0 0 0 - - - 0;
#X floatatom 448 347 5 0 0 0 - - - 0;
#X floatatom 491 349 5 0 0 0 - - - 0;
#X msg 362 69 array3 2 3 2 1 2 3 4 5 6 7 8 9 10 11 12;
#X msg 489 116 array3 1 1 2 1 2;
#X obj 391 323 env~;
#X obj 448 323 env~;
#X obj 494 322 env~;
#X obj 578 182 snake~ in 2;
#X obj 410 257 snake~ out 3;
#X obj 409 233 mtx_convolver~ -m;
#X connect 2 0 6 0;
#X connect 3 0 4 0;
#X connect 4 0 7 0;
#X connect 5 0 2 0;
#X connect 7 0 5 0;
#X connect 13 0 23 0;
#X connect 14 0 23 1;
#X connect 18 0 25 0;
#X connect 19 0 25 0;
#X connect 20 0 15 0;
#X connect 21 0 16 0;
#X connect 22 0 17 0;
#X connect 23 0 25 1;
#X connect 24 0 20 0;
#X connect 24 1 21 0;
#X connect 24 2 22 0;
#X connect 25 0 24 0;
