#N canvas 385 142 508 466 10;
#X obj 122 68 inlet bang;
#X obj 122 385 outlet 1==OK;
#X text 67 37 test for existence of [mtx_rifft];
#X obj 122 161 mtx_rifft;
#X msg 122 102 matrix 1 3 1 0 0;
#X obj 122 184 mtx_- 0.25;
#X obj 122 132 t a a;
#X obj 122 207 mtx_abs;
#X obj 122 230 mtx_transpose;
#X obj 122 253 mtx_sum;
#X obj 122 276 t f;
#X obj 122 299 == 0;
#X connect 0 0 4 0;
#X connect 3 0 5 0;
#X connect 4 0 6 0;
#X connect 5 0 7 0;
#X connect 6 0 3 0;
#X connect 6 1 3 1;
#X connect 7 0 8 0;
#X connect 8 0 9 0;
#X connect 9 0 10 0;
#X connect 10 0 11 0;
#X connect 11 0 1 0;
