#N canvas 385 142 508 466 10;
#X obj 122 68 inlet bang;
#X obj 122 385 outlet 1==OK;
#X obj 122 347 b;
#X msg 122 366 1;
#X obj 122 132 t a a;
#X msg 122 102 matrix 1 8 0 0 0 0 0 0 0 0;
#X obj 122 161 mtx_fft;
#X text 67 37 test for existence of [mtx_fft];
#X connect 0 0 5 0;
#X connect 2 0 3 0;
#X connect 3 0 1 0;
#X connect 4 0 6 0;
#X connect 4 1 6 1;
#X connect 5 0 4 0;
#X connect 6 0 2 0;
