#N struct 1004-element float x float y float v float c;
#N canvas 2442 253 243 270 12;
#X msg 7 10 bang;
#X obj 7 35 mtx_rand 5 5;
#X obj 7 115 mtx_inverse;
#X obj 7 140 mtx_*, f 14;
#X obj 7 85 t a a, f 14;
#X obj 7 59 mtx_+ 1;
#X obj 7 165 mtx_show;
#X connect 0 0 1 0;
#X connect 1 0 5 0;
#X connect 2 0 3 0;
#X connect 3 0 6 0;
#X connect 4 0 2 0;
#X connect 4 1 3 1;
#X connect 5 0 4 0;
